
<svg width="15" height="14" viewBox="0 0 15 14" fill="none" xmlns="http://www.w3.org/2000/svg">
<path d="M3.41086 9.95998L2.1552 1.80666H1.38863C1.21045 1.80666 1.03957 1.73588 0.913573 1.60989C0.787579 1.4839 0.716797 1.31301 0.716797 1.13483C0.716797 0.956653 0.787579 0.785771 0.913573 0.659779C1.03957 0.533786 1.21045 0.463004 1.38863 0.463004H2.72222C2.8843 0.460012 3.04192 0.516134 3.16564 0.620884C3.29262 0.727663 3.37545 0.877766 3.39809 1.04212L3.61845 2.47849H8.77882V3.82215H3.82538L4.65173 9.19679H10.9663L11.9741 5.83764H13.3769L12.1098 10.0614C12.0683 10.1999 11.9833 10.3213 11.8673 10.4076C11.7514 10.4939 11.6107 10.5405 11.4662 10.5404H4.08672C3.92005 10.5435 3.75827 10.4841 3.63323 10.3738C3.51137 10.2673 3.43282 10.1203 3.41086 9.95998ZM6.09148 12.5559C6.09148 12.9123 5.94991 13.2541 5.69793 13.506C5.44594 13.758 5.10417 13.8996 4.74781 13.8996C4.39144 13.8996 4.04968 13.758 3.79769 13.506C3.5457 13.2541 3.40414 12.9123 3.40414 12.5559C3.40414 12.1996 3.5457 11.8578 3.79769 11.6058C4.04968 11.3538 4.39144 11.2123 4.74781 11.2123C5.10417 11.2123 5.44594 11.3538 5.69793 11.6058C5.94991 11.8578 6.09148 12.1996 6.09148 12.5559ZM12.138 12.5559C12.138 12.9123 11.9964 13.2541 11.7444 13.506C11.4925 13.758 11.1507 13.8996 10.7943 13.8996C10.438 13.8996 10.0962 13.758 9.8442 13.506C9.59222 13.2541 9.45065 12.9123 9.45065 12.5559C9.45065 12.1996 9.59222 11.8578 9.8442 11.6058C10.0962 11.3538 10.438 11.2123 10.7943 11.2123C11.1507 11.2123 11.4925 11.3538 11.7444 11.6058C11.9964 11.8578 12.138 12.1996 12.138 12.5559ZM12.138 0.463004C12.3162 0.463004 12.4871 0.533786 12.6131 0.659779C12.739 0.785771 12.8098 0.956653 12.8098 1.13483V1.80666H13.4817C13.6598 1.80666 13.8307 1.87745 13.9567 2.00344C14.0827 2.12943 14.1535 2.30031 14.1535 2.47849C14.1535 2.65667 14.0827 2.82755 13.9567 2.95355C13.8307 3.07954 13.6598 3.15032 13.4817 3.15032H12.8098V3.82215C12.8098 4.00033 12.739 4.17121 12.6131 4.29721C12.4871 4.4232 12.3162 4.49398 12.138 4.49398C11.9598 4.49398 11.7889 4.4232 11.6629 4.29721C11.5369 4.17121 11.4662 4.00033 11.4662 3.82215V3.15032H10.7943C10.6161 3.15032 10.4453 3.07954 10.3193 2.95355C10.1933 2.82755 10.1225 2.65667 10.1225 2.47849C10.1225 2.30031 10.1933 2.12943 10.3193 2.00344C10.4453 1.87745 10.6161 1.80666 10.7943 1.80666H11.4662V1.13483C11.4662 0.956653 11.5369 0.785771 11.6629 0.659779C11.7889 0.533786 11.9598 0.463004 12.138 0.463004Z" fill="white"/>
</svg>
