<svg width="24" height="24" viewBox="0 0 24 24" fill="none" xmlns="http://www.w3.org/2000/svg">
<g id="Iconly/Light/Chef">
<g id="Group 540">
<path id="Rectangle 359" d="M5.80566 14.6758V16.9696C5.80566 19.1323 5.80566 20.2136 6.47752 20.8855C7.14937 21.5573 8.2307 21.5573 10.3934 21.5573H13.4518C15.6145 21.5573 16.6958 21.5573 17.3677 20.8855C18.0395 20.2136 18.0395 19.1323 18.0395 16.9696V14.6758" stroke="white" stroke-width="1.5" stroke-linecap="round"/>
<path id="Vector" d="M5.8055 14.6119C3.63574 14.2479 1.98242 12.3609 1.98242 10.0877C1.98242 7.55398 4.0364 5.5 6.57011 5.5C6.88493 5.5 7.19234 5.53171 7.48933 5.59211" stroke="white" stroke-width="1.5" stroke-linecap="round"/>
<path id="Vector_2" d="M18.1936 14.6119C20.3634 14.2479 22.0167 12.3609 22.0167 10.0877C22.0167 7.55398 19.9627 5.5 17.429 5.5C17.1142 5.5 16.8068 5.53171 16.5098 5.59211" stroke="white" stroke-width="1.5" stroke-linecap="round"/>
<path id="Ellipse 99" d="M7.47949 8.17602C7.38514 7.80944 7.33496 7.42513 7.33496 7.0291C7.33496 4.49538 9.38894 2.44141 11.9227 2.44141C14.4564 2.44141 16.5103 4.49538 16.5103 7.0291C16.5103 7.42513 16.4602 7.80944 16.3658 8.17602" stroke="white" stroke-width="1.5" stroke-linecap="round"/>
<path id="Vector 17" d="M5.80566 18.1152H18.0395" stroke="white" stroke-width="1.5"/>
<path id="Vector 18" d="M11.8926 10.7324V13.135" stroke="white" stroke-width="1.5" stroke-linecap="round"/>
<path id="Vector 19" d="M7.64369 10.9336C7.45162 11.3626 7.80373 12.9982 8.21988 13.2662" stroke="white" stroke-width="1.5" stroke-linecap="round"/>
<path id="Vector 20" d="M16.4559 10.9336C16.648 11.3626 16.2959 12.9982 15.8797 13.2662" stroke="white" stroke-width="1.5" stroke-linecap="round"/>
</g>
</g>
</svg>
