<svg width="24" height="24" viewBox="0 0 24 24" fill="none" xmlns="http://www.w3.org/2000/svg">
<path d="M18.769 17.9219C18.2669 17.9219 17.7761 18.0708 17.3587 18.3497C16.9412 18.6286 16.6158 19.0251 16.4237 19.4889C16.2316 19.9528 16.1813 20.4632 16.2792 20.9556C16.3772 21.4481 16.619 21.9004 16.974 22.2554C17.329 22.6104 17.7813 22.8522 18.2737 22.9501C18.7662 23.0481 19.2766 22.9978 19.7404 22.8057C20.2043 22.6135 20.6007 22.2882 20.8797 21.8707C21.1586 21.4533 21.3075 20.9625 21.3075 20.4604C21.3068 19.7873 21.0392 19.142 20.5632 18.6661C20.0873 18.1902 19.442 17.9225 18.769 17.9219ZM18.769 21.3066C18.6016 21.3066 18.438 21.2569 18.2989 21.164C18.1597 21.071 18.0513 20.9388 17.9872 20.7842C17.9232 20.6296 17.9064 20.4595 17.9391 20.2953C17.9717 20.1312 18.0523 19.9804 18.1707 19.8621C18.289 19.7437 18.4398 19.6631 18.6039 19.6305C18.768 19.5978 18.9382 19.6146 19.0928 19.6786C19.2474 19.7427 19.3796 19.8511 19.4726 19.9903C19.5655 20.1294 19.6152 20.293 19.6152 20.4604C19.6149 20.6847 19.5257 20.8998 19.3671 21.0585C19.2084 21.2171 18.9933 21.3063 18.769 21.3066Z" fill="#EB6227"/>
<path d="M13.6926 17.9215H6.9232C6.69878 17.9215 6.48356 17.8323 6.32487 17.6736C6.16618 17.515 6.07703 17.2997 6.07703 17.0753C6.07703 16.8509 6.16618 16.6357 6.32487 16.477C6.48356 16.3183 6.69878 16.2291 6.9232 16.2291H20.462C20.6621 16.2291 20.8558 16.1581 21.0085 16.0287C21.1613 15.8993 21.2633 15.72 21.2963 15.5226L22.9886 5.36852C23.0089 5.2473 23.0025 5.1231 22.9699 5.00459C22.9374 4.88607 22.8793 4.77608 22.7999 4.68225C22.7205 4.58843 22.6216 4.51304 22.5101 4.46131C22.3986 4.40958 22.2772 4.38277 22.1543 4.38273H8.61555C8.39113 4.38273 5.15869 4.34131 5 4.5C4.84131 4.65869 5.5 5.27558 5.5 5.5C5.5 5.72442 5.34131 5.84131 5.5 6C5.65869 6.15869 8.71494 16.2291 8.93936 16.2291L20 14.5L19.7452 14.5368H9.20194L4.33138 1.54721C4.27088 1.38582 4.16254 1.24675 4.02085 1.14861C3.87916 1.05047 3.71088 0.997939 3.53852 0.998047H1.84617C1.62175 0.998047 1.40653 1.0872 1.24784 1.24589C1.08915 1.40457 1 1.6198 1 1.84422C1 2.06864 1.08915 2.28386 1.24784 2.44255C1.40653 2.60124 1.62175 2.69039 1.84617 2.69039H2.95212L7.39452 14.5368H6.9232C6.30675 14.5325 5.70992 14.7533 5.24481 15.158C4.77971 15.5626 4.47833 16.1231 4.39729 16.7342C4.31626 17.3453 4.46113 17.965 4.8047 18.4769C5.14828 18.9887 5.66691 19.3575 6.26319 19.514C6.10437 19.8962 6.04123 20.3113 6.07927 20.7235C6.11731 21.1356 6.25537 21.5322 6.48146 21.8788C6.70756 22.2255 7.01485 22.5117 7.37666 22.7127C7.73848 22.9136 8.14387 23.0232 8.55765 23.0319C8.97143 23.0407 9.38108 22.9483 9.75105 22.7627C10.121 22.5772 10.4401 22.3042 10.6806 21.9674C10.9211 21.6306 11.0758 21.2401 11.1311 20.83C11.1865 20.4198 11.1409 20.0024 10.9984 19.6138H13.6926C13.917 19.6138 14.1322 19.5247 14.2909 19.366C14.4496 19.2073 14.5388 18.9921 14.5388 18.7677C14.5388 18.5432 14.4496 18.328 14.2909 18.1693C14.1322 18.0106 13.917 17.9215 13.6926 17.9215ZM9.46172 20.46C9.46172 20.6274 9.41209 20.791 9.31911 20.9301C9.22614 21.0693 9.09398 21.1777 8.93936 21.2418C8.78475 21.3058 8.61461 21.3226 8.45047 21.2899C8.28633 21.2573 8.13555 21.1767 8.01721 21.0583C7.89887 20.94 7.81828 20.7892 7.78563 20.6251C7.75298 20.4609 7.76974 20.2908 7.83379 20.1362C7.89783 19.9816 8.00629 19.8494 8.14544 19.7564C8.28459 19.6635 8.44819 19.6138 8.61555 19.6138C8.8399 19.6141 9.05499 19.7033 9.21363 19.8619C9.37227 20.0206 9.4615 20.2357 9.46172 20.46Z" fill="#EB6227"/>
</svg>
