<svg width="54" height="54" viewBox="0 0 54 54" fill="none" xmlns="http://www.w3.org/2000/svg">
<path d="M27.027 4.5113e-05C41.931 0.054045 54.027 12.204 54 27.135C53.973 42.012 41.715 54.108 26.811 54C11.988 53.919 -0.0269545 41.823 4.54165e-05 27.027C0.0270454 12.069 12.123 -0.0269548 27.027 4.5113e-05ZM52.731 27.162C52.785 12.933 41.337 1.29604 27.162 1.21504C12.879 1.13404 1.18804 12.636 1.13404 26.865C1.08004 41.04 12.582 52.731 26.73 52.812C41.067 52.893 52.677 41.418 52.731 27.162Z" fill="black"/>
<path d="M15.4439 39.5547C15.2009 39.1497 15.0389 38.8527 14.8499 38.5287C14.7149 38.6097 14.5799 38.6637 14.4989 38.7447C13.2569 39.9867 11.9609 41.1747 10.7729 42.4707C9.90888 43.4427 9.39588 43.3347 8.55888 42.3897C-2.2951 29.4567 3.48289 9.36877 19.6289 4.29278C27.9179 1.70078 35.5048 3.29379 42.3088 8.72078C43.2538 9.47678 43.2808 9.96277 42.4168 10.8268C38.4208 14.7418 34.5058 18.7108 30.5639 22.6258C29.9969 23.1928 29.6999 23.6518 30.7528 24.3808C32.0218 23.0308 33.2908 21.6538 34.6138 20.3308C37.3678 17.5498 40.1488 14.7958 42.9028 12.0148C44.1448 10.7728 44.1448 10.7728 45.2788 12.0418C51.7048 19.1968 52.7038 30.2937 47.6818 38.9607C40.2838 51.7317 23.3549 54.8907 11.8799 45.6027C10.4759 44.4687 10.4759 44.4147 11.7449 43.1727C12.9599 41.9577 14.2019 40.7697 15.4439 39.5547ZM9.53088 41.5257C11.5559 39.6357 13.8239 38.0157 15.3899 35.8827C18.3329 31.9137 20.8709 27.6477 23.5439 23.5168C23.7599 23.1928 24.0569 22.8148 24.0569 22.4368C24.1109 19.6558 24.0839 16.9018 24.0839 14.1208C23.6519 14.0398 23.2469 14.0938 23.0579 13.9048C22.6529 13.4998 22.0859 12.9598 22.1129 12.5008C22.1399 12.0418 22.8149 11.3128 23.2469 11.2858C25.4879 11.1778 27.7289 11.1778 29.9698 11.2858C30.3748 11.3128 31.0228 12.0148 31.0228 12.4198C31.0498 12.9058 30.5368 13.4458 30.1589 13.8778C29.9699 14.0938 29.5108 14.0668 29.2409 14.1208C29.2409 16.7938 29.2409 19.3588 29.2409 21.7887C33.2908 17.7388 37.3678 13.6618 41.4448 9.58478C33.6418 2.61879 20.1689 1.94379 11.1239 10.6918C2.59189 19.0078 1.88989 32.9397 9.53088 41.5257ZM12.2579 44.1717C19.9799 51.2457 33.9928 52.3257 43.2268 42.8757C52.3528 33.5337 51.1108 19.5748 44.2798 12.7438C39.9868 17.0098 35.7208 21.2757 31.2928 25.7037C33.2908 28.6737 35.3968 31.7517 37.4758 34.8297C37.9348 35.5317 38.4478 36.2607 38.7448 37.0437C39.2308 38.3127 38.7178 39.3927 37.4488 39.8247C36.8278 40.0407 36.1258 40.1487 35.4778 40.1487C29.4029 40.1487 23.3549 40.1217 17.2799 40.1217C16.9289 40.1217 16.4699 40.2567 16.2269 40.4727C14.8499 41.6607 13.5809 42.9027 12.2579 44.1717ZM34.2358 32.4807C33.2098 30.8877 32.5348 29.5377 31.6168 28.4037C28.5389 24.6237 27.2159 20.3848 27.8909 15.5248C27.9989 14.8228 27.7559 13.9588 28.0799 13.4188C28.3498 12.9598 29.1869 12.8518 29.8889 12.5278C27.6749 12.5278 25.5419 12.5278 23.4089 12.5278C25.3259 12.9868 25.3259 12.9868 25.3259 15.0388C25.3259 16.8478 25.2449 18.6568 25.3529 20.4387C25.4609 22.1397 25.0289 23.5708 24.0839 24.9748C22.1129 27.9178 20.3039 30.9687 18.3869 33.9927C18.5489 34.0737 18.6299 34.1547 18.7649 34.2087C18.9809 34.2897 19.1969 34.3437 19.4129 34.4247C22.0319 35.1537 24.4889 34.5057 26.8649 33.4527C29.1059 32.4807 31.3738 31.5627 34.2358 32.4807ZM26.8379 38.9877C27.5669 38.9877 28.2689 38.9877 28.9979 38.9877C31.2118 38.9877 33.3988 39.0417 35.6128 38.9607C36.2608 38.9337 37.2328 38.6907 37.4758 38.2317C37.7188 37.7727 37.3408 36.8547 36.9898 36.2877C35.2618 33.5607 32.5618 32.6697 29.5379 33.6957C28.8629 33.9387 28.1879 34.1817 27.5399 34.5057C24.5429 35.9097 21.4919 36.5037 18.2789 35.3697C18.0089 35.2887 17.4959 35.2887 17.4149 35.4237C16.9289 36.2877 16.5239 37.2057 16.0919 38.1237C16.8479 38.4207 17.6039 38.7177 18.3599 38.9877C18.6029 39.0687 18.8999 39.0147 19.1699 39.0147C21.7079 38.9877 24.2729 38.9877 26.8379 38.9877Z" fill="black"/>
</svg>
