<svg width="54" height="54" viewBox="0 0 54 54" fill="none" xmlns="http://www.w3.org/2000/svg">
<path d="M27.1356 0.00220924C42.1194 0.191193 54.1604 12.3942 53.9984 27.2429C53.8094 42.1187 41.6064 54.1597 26.8117 53.9977C11.6929 53.8357 -0.213089 41.6057 0.0028925 26.514C0.218874 11.7732 12.4759 -0.186775 27.1356 0.00220924ZM52.7295 27.027C52.7295 12.7182 41.1745 1.19011 26.8927 1.21711C12.7188 1.21711 1.1368 12.8261 1.1368 26.973C1.1368 41.2278 12.7188 52.8098 26.9736 52.7828C41.2015 52.7828 52.7565 41.2008 52.7295 27.027Z" fill="black"/>
<path d="M33.048 21.5466C33.453 21.2497 33.8849 20.9797 34.2089 20.6287C37.2057 17.659 40.2294 14.6892 43.1722 11.6385C44.0631 10.7205 44.576 10.6935 45.386 11.7195C51.0555 19.0358 52.5404 27.0812 49.1386 35.6935C45.7909 44.2517 39.2845 49.2733 30.1862 50.6232C23.3288 51.6491 17.1733 49.7863 11.7738 45.4667C10.4779 44.4407 10.4779 44.3597 11.6388 43.1988C13.6096 41.228 15.6074 39.2842 17.5513 37.3403C17.0653 36.3414 16.6334 36.4764 16.0124 37.1243C14.2846 38.9062 12.4757 40.607 10.8018 42.3889C9.96492 43.2798 9.39797 43.3878 8.58804 42.3349C2.91851 35.0995 1.35264 27.0812 4.64637 18.4959C7.91309 9.91061 14.3386 4.80803 23.4368 3.35016C30.4832 2.21625 36.7737 4.16009 42.3352 8.61472C43.2531 9.34366 43.3881 9.85662 42.4702 10.7205C40.6344 12.4484 38.8525 14.2303 37.1247 16.0661C35.6128 17.686 34.2089 19.4408 32.751 21.1147C32.832 21.2767 32.94 21.4116 33.048 21.5466ZM44.2791 12.4484C41.2013 15.5261 38.1776 18.5499 35.5048 21.1957C35.3698 22.8695 35.4508 24.2194 35.1268 25.4613C34.7759 26.7032 33.9929 27.8371 33.426 28.998C35.7748 29.457 36.1527 29.8619 35.5588 32.2107C35.2078 33.6146 34.5599 35.0185 33.6959 36.1794C31.9681 38.4742 29.4303 39.3382 26.4336 39.2032C26.9195 41.039 27.4325 42.7669 28.8363 43.8738C29.5653 44.4407 30.6992 44.5217 31.6441 44.7647C32.1031 44.8997 32.589 44.9267 33.048 45.0077C32.643 45.3317 32.2381 45.9256 31.8331 45.9256C30.8882 45.9526 29.7003 45.9796 28.9983 45.4667C27.9184 44.6837 27.0005 43.5498 26.2986 42.3889C25.6506 41.309 25.3536 40.0131 24.8677 38.7712C22.8698 39.2572 21.007 39.0142 19.1712 38.2043C18.9282 38.0963 18.4422 38.1503 18.2802 38.3392C16.2824 40.2831 14.3116 42.2539 12.3407 44.2247C19.4141 50.8662 33.129 52.4591 42.6052 43.4418C52.1894 34.3166 51.3525 20.2777 44.2791 12.4484ZM41.6063 9.74863C33.9389 2.70221 19.9811 1.73029 10.8018 11.0445C1.48763 20.4667 2.97251 34.4246 9.66795 41.552C11.7198 39.5001 13.7716 37.4213 15.8234 35.3695C15.5265 34.6675 15.1215 33.9386 14.8515 33.1287C14.0416 30.6179 14.3386 30.1859 16.9573 29.754C17.1733 29.727 17.3623 29.619 17.6323 29.538C15.8774 27.4591 14.9595 25.1913 15.2565 22.5186C15.3645 21.5466 15.7694 21.0337 16.7954 21.1147C17.6053 21.1687 18.3882 21.1957 19.1172 21.2227C18.9552 19.9808 18.6582 18.7389 18.7122 17.524C18.7932 15.0402 19.3871 14.6622 21.7089 15.3372C21.9249 15.3912 22.1409 15.4451 22.4109 15.5261C22.4109 14.9592 22.3029 14.4462 22.4379 14.0143C22.8428 12.6644 23.2748 11.3145 23.8418 10.0186C24.1927 9.20867 24.9487 9.12767 25.6236 9.69463C26.4606 10.3966 27.2435 11.1525 28.0804 11.9084C28.9173 10.1536 30.2402 8.8847 32.2111 8.37174C34.2089 7.83178 35.0458 8.34474 34.8298 10.3696C34.6679 11.9084 33.9659 13.3933 33.534 14.7702C34.0469 15.1212 34.6949 15.5531 35.4508 16.0661C37.3136 14.2033 39.3115 12.1784 41.3093 10.1806C41.4173 10.0456 41.5253 9.88362 41.6063 9.74863ZM16.6604 22.3566C15.7154 26.8652 19.7381 31.3738 24.1387 30.8069C25.0297 26.1903 21.412 22.0596 16.6604 22.3566ZM34.2359 22.8695C30.2402 21.8436 25.6776 25.3803 25.6776 29.376C25.6776 30.1049 25.9476 30.2939 26.6225 30.3479C30.6182 30.7799 34.5059 27.0272 34.2359 22.8695ZM26.2986 37.7993C30.7802 38.5822 35.2078 34.4516 34.2629 30.4559C29.8353 29.754 25.8396 33.3987 26.2986 37.7993ZM15.7694 31.3468C16.2284 35.8015 20.494 38.7712 24.5437 37.4753C25.3536 33.3986 19.6031 29.565 15.7694 31.3468ZM33.6689 16.2821C30.1322 15.3912 26.8115 18.1719 26.9465 21.8706C30.2402 22.6535 34.1009 19.5488 33.6689 16.2821ZM20.2511 16.3631C18.7932 19.2248 21.574 23.7874 24.8407 23.7065C26.1096 20.3857 23.6798 16.4711 20.2511 16.3631ZM26.2176 18.5229C28.4044 15.9041 27.7024 12.1784 24.8407 10.7475C22.7888 13.3123 23.3558 16.66 26.2176 18.5229ZM33.399 9.42465C30.1862 9.91061 28.3234 12.4754 28.8903 15.4452C32.0221 15.1482 34.2629 12.2054 33.399 9.42465ZM25.5426 34.1006C26.2176 33.0747 26.6765 32.3997 27.2165 31.5898C26.5685 31.5628 26.1096 31.5358 25.5426 31.5088C25.5426 32.2917 25.5426 32.9667 25.5426 34.1006Z" fill="black"/>
</svg>
