<svg width="53" height="53" viewBox="0 0 53 53" fill="none" xmlns="http://www.w3.org/2000/svg">
<path d="M26.4208 52.9993C11.6605 52.8933 -0.105288 40.995 0.000710601 26.2347C0.106709 11.766 12.0845 -0.0528216 26.5798 0.000177555C41.2605 0.0531767 53.1323 12.084 52.9998 26.7912C52.8673 41.313 40.8895 53.1053 26.4208 52.9993ZM51.8338 26.5792C51.8868 12.7465 40.598 1.29866 26.7653 1.19266C12.6675 1.08666 1.2462 12.349 1.1667 26.4467C1.0872 40.306 12.4555 51.7803 26.3678 51.8333C40.3595 51.8863 51.7808 40.571 51.8338 26.5792Z" fill="black"/>
<path d="M17.0672 36.1461C16.5373 36.3581 15.9013 36.4376 15.5303 36.7821C13.8078 38.4251 12.1118 40.0946 10.4689 41.8435C9.70037 42.6385 9.24988 42.506 8.58739 41.7376C-2.83392 28.5673 4.26796 7.31462 21.3337 3.63118C28.78 2.04121 35.5109 3.65769 41.4733 8.42761C42.7718 9.4611 42.7718 9.5141 41.5528 10.7331C39.4859 12.8 37.4189 14.8405 35.2989 16.934C35.6699 17.2255 35.9084 17.4375 36.2529 17.729C38.2934 15.6885 40.3074 13.7275 42.2418 11.6606C43.1693 10.6536 43.6993 10.8391 44.5208 11.7666C52.9211 21.1739 51.4902 36.4111 41.4468 44.626C32.755 51.7279 20.4592 51.7809 11.7408 44.732C10.3364 43.5925 10.3364 43.5925 11.5818 42.347C13.5163 40.4391 15.4508 38.5311 17.3852 36.6231C17.2527 36.4641 17.1732 36.3051 17.0672 36.1461ZM14.6558 35.7486C11.0783 34.1322 9.91237 31.0052 9.64737 27.4013C9.56787 26.3413 9.67387 25.2813 9.77987 24.2479C10.0184 21.7834 11.1313 19.7959 13.0393 18.2589C13.4898 17.9144 14.1258 17.6495 14.7088 17.6495C18.3127 17.623 21.8107 18.1264 25.1761 19.5044C25.5471 19.6634 26.2096 19.5309 26.5276 19.2659C27.6936 18.3384 28.7801 17.2785 29.8665 16.2715C31.695 14.5755 31.695 14.5755 33.8415 15.9535C33.974 16.033 34.1595 16.1125 34.0005 16.033C36.3059 13.754 38.5054 11.5546 40.6783 9.38159C32.6755 2.27971 18.6572 1.93521 9.93886 11.5811C1.19401 21.2799 3.49948 34.6357 9.51488 40.7571C11.2373 39.1141 12.9068 37.4446 14.6558 35.7486ZM12.1118 43.46C20.4327 50.8534 34.7159 51.0654 43.3548 41.1016C51.7817 31.3762 49.3702 18.0735 43.4078 12.588C41.3673 14.602 39.3534 16.616 37.3129 18.6564C38.1609 19.5044 39.2739 20.3259 39.9894 21.4124C41.0758 23.0024 42.2418 24.6453 42.7453 26.4473C44.4413 32.5687 40.2279 37.3121 33.974 36.4376C32.2515 36.1992 30.582 36.3052 28.9125 36.1727C25.9181 35.9077 23.0031 35.9342 20.0882 36.5171C19.9557 36.5436 19.8232 36.4906 19.6907 36.5436C19.3462 36.6761 18.9222 36.7556 18.6572 36.9941C16.4843 39.0876 14.3378 41.2341 12.1118 43.46ZM32.119 15.8475C30.264 17.5435 28.674 19.0009 27.0311 20.5114C29.5485 22.3134 31.3505 24.4068 30.6615 27.6663C30.0785 30.4752 28.674 32.8867 26.1301 34.7682C26.8986 34.9007 27.3756 35.1127 27.8261 35.0332C30.5025 34.5562 33.126 35.2717 35.7759 35.3247C39.2739 35.4042 41.7383 32.8867 41.9238 29.3623C42.0828 26.6063 41.1818 24.1684 39.2739 22.2604C36.9949 20.0609 34.557 18.047 32.119 15.8475ZM22.5792 30.8197C23.8511 30.6342 25.1231 30.5812 26.3421 30.2367C29.6545 29.3358 30.741 26.0763 28.4886 23.4794C27.4286 22.2604 25.9446 21.3064 24.4606 20.5909C21.4662 19.1599 18.2067 18.8949 14.9208 18.7889C14.6028 18.7889 14.2053 18.8684 13.9403 19.0274C10.2039 21.3329 10.0979 25.8908 13.7548 28.2493C16.4313 29.9453 19.4257 30.6077 22.5792 30.8197ZM10.9724 27.5868C10.7074 30.5812 12.4828 33.6552 15.2123 34.6092C18.2597 35.6692 21.3602 35.6957 24.3546 34.3442C25.8121 33.6817 26.9781 32.6747 27.9321 31.1377C21.5722 32.7277 15.9013 31.7737 10.9724 27.5868Z" fill="black"/>
<path d="M26.2619 28.1417C26.2089 28.2477 26.1559 28.6187 25.9439 28.7247C25.7584 28.8307 25.4139 28.6452 25.1489 28.5392C24.1949 28.0622 23.3204 27.2937 22.3134 27.0817C20.114 26.6047 18.4445 25.5978 17.358 23.5573C16.775 22.4708 15.9005 21.5698 15.185 20.5628C14.9995 20.2979 14.9996 19.9534 14.8936 19.6354C15.2115 19.5559 15.556 19.3174 15.821 19.3969C18.206 20.2448 20.6705 20.9603 22.8964 22.1263C25.1489 23.2393 26.0764 25.4388 26.2619 28.1417ZM24.6984 26.2603C24.0094 23.6633 20.485 21.2253 17.3845 21.0928C18.577 24.4053 21.068 26.1013 24.6984 26.2603Z" fill="black"/>
</svg>
