<svg width="60" height="60" viewBox="0 0 60 60" fill="none" xmlns="http://www.w3.org/2000/svg">
<path d="M59.9992 30.3271C60.0289 46.5432 46.7477 59.943 30.5908 59.9727C14.0486 60.032 0.737703 46.8397 0.708057 30.3864C0.678412 13.9924 13.93 0.74078 30.3833 0.711134C46.5994 0.651843 59.9696 14.022 59.9992 30.3271ZM58.6355 30.4753C58.6948 14.8521 46.0955 2.13412 30.5315 2.04519C14.8786 1.98589 2.1014 14.5556 2.01246 30.0899C1.92352 45.7724 14.5525 58.6386 30.1461 58.6979C45.799 58.7868 58.5762 46.1282 58.6355 30.4753Z" fill="black"/>
<path d="M39.751 20.0701C40.5218 20.9891 40.9961 20.7816 41.589 20.159C43.6642 18.0245 45.7691 15.9493 47.8739 13.8741C49.2376 12.5104 49.2376 12.5104 50.4827 13.9038C58.576 22.8864 58.6945 37.1163 50.7792 46.8697C41.6187 58.1646 25.0468 59.9137 13.8111 50.7533C12.2992 49.5081 12.2695 49.4488 13.6629 48.0555C14.7894 46.929 15.9159 45.8321 17.0425 44.7352C16.9832 44.587 16.8943 44.4387 16.835 44.2609C16.0938 44.587 15.2638 44.8241 14.6412 45.2688C13.8408 45.8617 13.1589 46.5732 12.5364 47.344C11.647 48.4112 11.0244 48.1741 10.224 47.1958C1.03386 36.2862 2.36792 19.744 13.2479 10.4352C23.0605 2.0159 37.4683 1.95661 47.281 10.1981C48.2889 11.0578 48.3779 11.5914 47.3996 12.5104C44.7908 15.0007 42.3005 17.5205 39.751 20.0701ZM31.717 15.475C30.7387 17.9356 30.383 18.2617 28.0706 19.0325C27.8335 19.1214 27.4481 19.2993 27.4184 19.4772C26.5884 22.8567 23.5349 24.7541 21.9044 27.689C20.096 30.95 17.3686 33.8849 13.9593 35.9008C12.062 37.0273 11.5581 40.1401 12.8328 41.6817C14.2262 43.3715 15.9752 43.2826 17.8133 42.9268C19.8588 42.5414 21.8747 42.3932 23.7127 43.4901C26.3216 45.0317 28.9897 45.2095 31.8356 44.2609C34.1776 43.4901 36.49 43.7272 38.4762 45.1502C39.8103 46.0989 40.7886 45.7431 41.7373 44.7945C46.273 40.2884 49.3562 34.8929 51.0756 28.7562C51.3721 27.7483 51.0163 27.1554 50.0084 26.7107C46.8956 25.3173 43.8421 23.8647 40.7886 22.3231C38.4466 21.1373 36.3418 19.655 34.6816 17.5205C33.9701 16.6608 32.7546 16.1865 31.717 15.475ZM13.574 44.1423C13.0996 43.6976 12.6253 43.2826 12.1806 42.8379C9.95719 40.6441 10.639 36.4344 13.2775 34.6853C16.9239 32.2544 19.9478 29.2009 21.7561 25.0802C21.9933 24.5465 22.3194 23.9536 22.7641 23.6868C24.4539 22.6196 25.3136 20.9891 25.9955 19.2103C26.1733 18.736 26.1437 18.0542 25.9065 17.6095C24.8096 15.5343 24.3649 13.3109 24.7207 11.0282C24.8393 10.1981 25.4322 9.4273 25.8176 8.62686C26.3216 9.27907 26.8552 9.87198 27.2999 10.5538C28.3375 12.214 29.1082 14.2002 31.4206 14.4078C33.4365 14.5856 34.9188 15.5046 36.1342 17.1055C36.7864 17.9652 37.5869 18.6767 38.2391 19.3882C41.0258 16.6015 43.6642 13.9631 46.3027 11.3246C38.5059 4.0318 23.3274 2.40129 12.9514 12.5104C2.63473 22.5603 3.67233 37.976 11.3505 46.3657C12.062 45.6542 12.7735 44.9427 13.574 44.1423ZM14.1669 49.2413C23.1495 57.3346 39.1877 58.0757 49.0894 46.7807C58.6353 35.8712 55.9375 20.9001 49.1783 14.7339C46.866 17.0166 44.5832 19.3289 42.1523 21.7302C44.7611 22.916 47.3699 24.1612 50.0084 25.347C52.4986 26.4735 52.9136 27.0961 52.1132 29.8235C50.3938 35.6933 47.3699 40.8516 43.1603 45.2985C42.7452 45.7135 42.2709 46.0692 41.7965 46.425C40.6107 47.2847 39.4546 47.4626 38.1205 46.5139C36.2528 45.1799 34.2073 44.8538 31.9542 45.6246C28.9007 46.6622 25.9362 46.3657 23.1198 44.7352C22.349 44.2905 21.3707 44.1423 20.4517 43.9941C20.0663 43.9348 19.5327 44.083 19.2363 44.3498C17.5761 45.921 15.916 47.5515 14.1669 49.2413ZM26.0251 11.6507C25.8769 13.5777 26.114 15.4454 27.2109 17.1055C27.3888 17.3723 28.0114 17.6688 28.2485 17.5798C28.8711 17.2537 29.4343 16.7794 29.9087 16.2754C29.9976 16.1865 29.6419 15.5343 29.375 15.2675C28.3078 14.052 27.1813 12.8958 26.0251 11.6507Z" fill="black"/>
<path d="M36.1645 29.793C33.3186 29.6744 31.0655 28.1625 30.2354 25.4351C29.85 24.19 29.7611 22.8263 29.6722 21.5219C29.6425 21.0772 30.1465 20.6325 30.3836 20.1582C30.5912 20.6029 30.8876 21.0179 30.9469 21.4626C31.1248 22.5595 31.0655 23.7453 31.3916 24.8126C32.3106 27.9253 35.6309 29.2594 38.5362 27.8364C39.6331 27.3028 39.9888 26.3838 39.4256 25.4055C38.8326 24.3679 37.9136 23.5082 37.1725 22.5299C36.9353 22.2037 36.8464 21.7294 36.6982 21.3144C37.1132 21.3737 37.7358 21.2847 37.9433 21.5219C38.8919 22.5595 39.9592 23.5971 40.5817 24.8126C41.5304 26.6802 40.7596 28.3404 38.803 29.0815C38.0026 29.4373 37.0835 29.5855 36.1645 29.793Z" fill="black"/>
<path d="M27.6558 30.5928C26.885 30.1778 26.0845 29.822 25.4027 29.3477C25.2248 29.2291 25.3434 28.6659 25.3434 28.3398C25.6399 28.3694 26.0845 28.2508 26.2624 28.4287C27.4779 29.5552 28.6044 28.992 29.7902 28.4287C30.146 28.2805 30.6203 28.399 31.0354 28.399C30.8278 28.7844 30.7093 29.3477 30.4128 29.5256C29.5827 29.9406 28.6934 30.1778 27.6558 30.5928Z" fill="black"/>
</svg>
