<svg width="54" height="55" viewBox="0 0 54 55" fill="none" xmlns="http://www.w3.org/2000/svg">
<path d="M26.9054 54.0269C11.8325 53.8919 -0.13393 41.7363 0.00113211 26.7174C0.136194 11.9416 12.4268 -0.186905 27.0945 0.00218138C42.1945 0.191268 54.1339 12.3198 53.9989 27.3117C53.8908 42.1145 41.6542 54.162 26.9054 54.0269ZM52.8373 27.0686C52.9184 12.9951 41.3571 1.29878 27.2566 1.21774C12.886 1.1367 1.27072 12.617 1.18968 26.9605C1.10865 41.034 12.6699 52.7033 26.7704 52.8114C41.1139 52.9464 52.7563 41.4392 52.8373 27.0686Z" fill="black"/>
<path d="M18.8555 36.1982C18.1802 35.3338 17.721 35.5499 17.1538 36.1172C15.0198 38.3052 12.8048 40.4392 10.6978 42.6272C9.94145 43.4376 9.42822 43.3565 8.77992 42.5191C3.0533 35.3338 1.45957 27.3382 4.67404 18.7212C7.88851 10.1313 14.2905 4.94493 23.3396 3.43224C30.4709 2.24369 36.8728 4.16157 42.4914 8.72666C43.3558 9.42898 43.4368 9.94222 42.5994 10.7526C40.3574 12.8866 38.1964 15.1286 36.0084 17.3166C35.7113 17.6137 35.4141 17.9649 35.117 18.289C35.7653 19.1264 36.2245 18.8293 36.7918 18.262C38.9798 16.047 41.2218 13.913 43.3558 11.644C44.2742 10.6715 44.8144 10.8336 45.5708 11.8061C51.2164 19.0724 52.675 27.1221 49.3525 35.658C45.9219 44.2749 39.4119 49.3262 30.2548 50.7039C23.3936 51.7303 17.2618 49.8395 11.8593 45.5445C10.5627 44.518 10.5627 44.437 11.6973 43.3025C14.0743 40.9254 16.4514 38.5483 18.8555 36.1982ZM9.56329 41.4927C11.8863 39.1696 14.1824 36.9276 16.4784 34.6315C14.9928 33.7671 13.372 32.9027 11.8323 31.9033C11.4271 31.6331 11.049 31.0119 11.049 30.5527C10.9679 27.6353 10.9679 24.691 11.049 21.7736C11.049 21.3144 11.4542 20.6931 11.8593 20.45C14.2634 18.9643 16.7486 17.6137 19.1797 16.1551C19.909 15.7229 20.4493 15.7769 21.1516 16.2091C23.3936 17.5597 25.6356 18.8563 27.9317 20.0989C28.3369 20.315 29.0662 20.369 29.4714 20.1529C32.1456 18.7753 34.7118 17.2085 36.7107 14.8855C38.0343 13.3458 39.547 11.9952 40.9787 10.5635C41.2218 10.3204 41.4109 10.0503 41.627 9.78014C33.6043 2.59485 19.774 1.94656 10.7518 11.1578C1.70268 20.423 2.89123 34.1723 9.56329 41.4927ZM37.2239 19.6937C38.8447 20.6391 40.4654 21.4765 42.0051 22.503C42.4643 22.8001 42.8965 23.5294 42.8965 24.0697C42.9776 26.852 42.8965 29.6342 42.9506 32.4435C42.9506 33.2809 42.6534 33.7671 41.9511 34.1453C39.52 35.4959 37.1159 36.9006 34.7118 38.3322C34.0635 38.7104 33.5773 38.7644 32.875 38.3592C30.6059 36.9816 28.3099 35.658 25.9868 34.3884C25.5816 34.1723 24.9063 34.0643 24.5552 34.2534C21.8809 35.712 19.2067 37.1437 17.1267 39.4937C15.6411 41.1955 13.8582 42.6542 12.2105 44.2209C20.7734 51.7303 34.8198 52.0275 43.6529 42.4921C52.675 32.7407 50.5951 19.1534 44.3822 12.5894C42.0321 14.9125 39.6821 17.2626 37.2239 19.6937ZM12.7777 21.2334C15.2359 22.665 17.4509 23.9616 19.7199 25.2312C19.936 25.3663 20.3412 25.3663 20.5573 25.2312C22.8534 23.9616 25.1224 22.665 27.5535 21.2604C25.0954 19.8287 22.8804 18.5051 20.6113 17.2626C20.3412 17.1005 19.828 17.1815 19.5308 17.3436C17.3428 18.5862 15.1818 19.8558 12.7777 21.2334ZM41.1407 23.3674C38.7096 21.9627 36.4676 20.6661 34.2256 19.3965C34.0365 19.2885 33.6853 19.2345 33.4962 19.3155C31.1732 20.6121 28.9041 21.9627 26.419 23.3674C28.8501 24.772 31.0381 26.0686 33.2801 27.3112C33.5233 27.4462 33.9284 27.5003 34.1445 27.3922C36.4406 26.0956 38.6826 24.772 41.1407 23.3674ZM19.5308 34.9827C19.5308 33.551 19.5579 32.3895 19.5308 31.255C19.5038 29.6883 19.963 27.8514 19.2877 26.6359C18.6394 25.4743 16.8296 24.9881 15.506 24.2318C14.4525 23.6105 13.399 23.0162 12.1835 22.3139C12.1835 25.0691 12.1565 27.5543 12.2105 30.0124C12.2105 30.3906 12.4536 30.9038 12.7507 31.0929C14.8847 32.3625 17.0727 33.578 19.5308 34.9827ZM33.1991 37.1167C33.1991 35.1988 33.037 33.551 33.2261 31.9843C33.5503 29.5262 32.7669 27.9595 30.4168 27.014C28.8771 26.3927 27.4995 25.3933 25.8517 24.4479C25.8517 27.2571 25.8247 29.7693 25.8787 32.2814C25.8787 32.5786 26.0949 33.0108 26.338 33.1458C28.526 34.4154 30.714 35.685 33.1991 37.1167ZM34.3606 36.8735C34.6308 36.8195 34.8469 36.8195 35.0089 36.7115C37.0349 35.5499 39.0608 34.3884 41.0597 33.1999C41.3028 33.0648 41.627 32.7677 41.627 32.5246C41.654 29.9044 41.654 27.2842 41.654 24.4749C39.2229 25.8795 37.0619 27.0951 34.9009 28.3917C34.6038 28.5808 34.3876 29.121 34.3876 29.4992C34.3336 31.9033 34.3606 34.3344 34.3606 36.8735ZM24.6362 24.3668C23.3666 25.0691 22.3401 25.6364 21.3407 26.2307C21.0976 26.3657 20.8004 26.6629 20.8004 26.906C20.7734 29.5262 20.7734 32.1464 20.7734 34.9827C22.043 34.2533 23.1235 33.6861 24.1229 33.0378C24.3931 32.8757 24.6092 32.3895 24.6092 32.0653C24.6632 29.5802 24.6362 27.0951 24.6362 24.3668Z" fill="black"/>
</svg>
