<svg width="35" height="48" viewBox="0 0 35 48" fill="none" xmlns="http://www.w3.org/2000/svg">
<path d="M16.0844 21.1581H30.4384C32.8644 21.1581 34.4633 18.631 33.4244 16.4387L27.64 4.23309C26.7043 2.25867 24.7149 1 22.53 1H7.88444M4.64496 1H4.254C2.45684 1 1 2.45684 1 4.25401V17.8538C1 19.6787 2.47942 21.1581 4.30436 21.1581H12.8449M16.6402 5.94936C16.6402 6.94295 15.8348 7.74838 14.8412 7.74838H6.50239C5.50879 7.74838 4.70337 6.94295 4.70337 5.94936V5.83376C4.70337 4.84016 5.50879 4.03474 6.50239 4.03474H14.8412C15.8348 4.03474 16.6402 4.84016 16.6402 5.83376V5.94936Z" stroke="black" stroke-width="1.38835" stroke-miterlimit="10" stroke-linecap="round" stroke-linejoin="round"/>
<path d="M6.57413 13.8221C7.29841 13.8221 7.88556 13.2349 7.88556 12.5107C7.88556 11.7864 7.29841 11.1992 6.57413 11.1992C5.84984 11.1992 5.2627 11.7864 5.2627 12.5107C5.2627 13.2349 5.84984 13.8221 6.57413 13.8221Z" stroke="black" stroke-width="1.38835" stroke-miterlimit="10" stroke-linecap="round" stroke-linejoin="round"/>
<path d="M11.9843 13.8221C12.7086 13.8221 13.2957 13.2349 13.2957 12.5107C13.2957 11.7864 12.7086 11.1992 11.9843 11.1992C11.26 11.1992 10.6729 11.7864 10.6729 12.5107C10.6729 13.2349 11.26 13.8221 11.9843 13.8221Z" stroke="black" stroke-width="1.38835" stroke-miterlimit="10" stroke-linecap="round" stroke-linejoin="round"/>
<path d="M28.4456 23.91H20.166C19.556 23.91 19.0615 23.4155 19.0615 22.8055V21.1582H29.5502V22.8055C29.5501 23.4155 29.0557 23.91 28.4456 23.91Z" stroke="black" stroke-width="1.38835" stroke-miterlimit="10" stroke-linecap="round" stroke-linejoin="round"/>
<path d="M29.2693 41.4585C29.2693 45.1997 27.0472 46.9992 24.306 46.9992C21.5649 46.9992 19.3428 45.1997 19.3428 41.4585C19.3428 37.7174 20.4176 32.8262 24.306 32.8262C27.9379 32.8263 29.2693 37.7174 29.2693 41.4585Z" stroke="black" stroke-width="1.38835" stroke-miterlimit="10" stroke-linecap="round" stroke-linejoin="round"/>
<path d="M26.0879 41.4585C26.0879 45.1997 25.2907 46.9992 24.3072 46.9992C23.3236 46.9992 22.5264 45.1997 22.5264 41.4585C22.5264 37.7174 22.912 32.8262 24.3072 32.8262C25.6103 32.8263 26.0879 37.7174 26.0879 41.4585Z" stroke="black" stroke-width="1.38835" stroke-miterlimit="10" stroke-linecap="round" stroke-linejoin="round"/>
<path d="M24.3057 23.9102V32.8278" stroke="black" stroke-width="1.38835" stroke-miterlimit="10" stroke-linecap="round" stroke-linejoin="round"/>
<path d="M17.9326 12.5098H25.2848" stroke="black" stroke-width="1.38835" stroke-miterlimit="10" stroke-linecap="round" stroke-linejoin="round"/>
<path d="M17.9326 15.2305H25.2848" stroke="black" stroke-width="1.38835" stroke-miterlimit="10" stroke-linecap="round" stroke-linejoin="round"/>
</svg>
