<svg width="55" height="55" viewBox="0 0 55 55" fill="none" xmlns="http://www.w3.org/2000/svg">
<path d="M27.5648 54.9986C12.4108 54.9439 0.238445 42.6894 0.293152 27.5355C0.320506 12.4909 12.6297 0.236491 27.6742 0.291198C42.7734 0.345905 55.0552 12.7098 55.0005 27.7817C54.9185 42.7988 42.582 55.0259 27.5648 54.9986ZM27.7016 1.54947C13.3135 1.49476 1.52407 13.1474 1.46936 27.5081C1.41465 41.9235 13.1494 53.7677 27.5374 53.795C41.9255 53.8224 53.6602 42.1697 53.7149 27.7817C53.7696 13.2842 42.1717 1.57682 27.7016 1.54947Z" fill="black"/>
<path d="M37.2224 19.0292C39.5749 16.6494 41.9273 14.3517 44.1703 11.9993C44.9909 11.1513 45.4833 11.206 46.1945 12.1087C52.0208 19.5215 53.5526 27.7276 50.0787 36.5082C46.5774 45.3708 39.821 50.4859 30.3567 51.7168C23.5456 52.5922 17.5004 50.6227 12.1391 46.3555C11.127 45.5349 11.0997 44.9878 12.057 44.1125C13.6983 42.6081 15.2574 40.9942 16.7892 39.3803C17.0628 39.0794 17.0628 38.505 17.1995 38.0673C17.0354 37.9853 16.8713 37.9032 16.7072 37.8212C15.2301 39.2709 13.7803 40.748 12.3032 42.1977C9.92345 44.5775 9.92345 44.5775 7.92663 41.8148C0.814672 31.9675 2.155 18.2359 11.0723 9.9751C20.017 1.65958 33.7485 1.22192 43.0761 8.99037C44.3891 10.0845 44.3891 10.1119 43.1308 11.3701C41.134 13.367 39.1645 15.3911 37.113 17.3606C36.5386 17.9077 36.4292 18.3727 37.2224 19.0292ZM38.9457 32.5419C38.8363 25.5394 37.0036 20.1507 34.0494 16.4853C29.8369 11.2334 25.2415 11.2334 21.1111 16.54C17.6645 20.9439 16.1874 26.0317 16.1874 31.5572C16.1874 34.949 17.5278 37.7938 20.099 39.9547C23.7644 43.0731 27.9769 43.7296 32.3261 41.7054C36.8395 39.5992 38.9457 35.8243 38.9457 32.5419ZM10.2517 42.6081C12.1117 40.7206 13.9171 38.9153 15.6677 37.0553C15.8866 36.8364 16.0507 36.3167 15.9413 36.0432C14.4095 31.8307 15.0933 27.6729 16.3242 23.5699C17.4457 19.7677 19.2784 16.2938 22.342 13.6678C25.7339 10.7136 29.2352 10.7136 32.7091 13.5584C33.8853 14.5158 35.0615 15.4458 36.1556 16.3212C37.9063 14.5705 40.1493 12.3822 42.3649 10.1666C35.5539 3.68375 21.6855 1.71428 11.8929 10.9325C2.01824 20.1507 2.92091 34.5934 10.2517 42.6081ZM12.9597 45.3161C20.6735 52.2639 34.8153 53.2213 44.0882 43.7022C53.4432 34.1011 51.8567 20.2054 45.0729 12.8199C42.9394 14.9808 40.8058 17.1691 38.6175 19.2754C37.8789 19.9866 37.7422 20.561 38.1525 21.5184C39.6022 24.9649 40.204 28.603 39.9852 32.3504C39.6022 39.2162 33.2561 44.5502 26.4451 43.8663C23.2173 43.5381 20.5367 42.1157 18.3757 39.9274C16.5704 41.7054 14.7924 43.456 12.9597 45.3161Z" fill="black"/>
<path d="M17.335 30.0792C17.9367 25.0461 19.3318 20.4781 22.7236 16.758C23.7904 15.5817 25.3222 14.8158 26.6899 13.9952C26.9635 13.8311 27.5652 14.132 28.0029 14.2414C27.6747 14.4876 27.3464 14.7611 26.9908 15.0073C25.7873 15.8826 24.3649 16.5391 23.4348 17.6333C20.4533 21.0525 19.1403 25.1829 18.6753 29.6142C18.6753 29.751 18.6753 29.8877 18.6479 30.0245C18.4565 30.6536 18.2376 31.2828 18.0462 31.9119C17.8 31.3101 17.5811 30.7083 17.335 30.0792Z" fill="black"/>
</svg>
