<svg width="44" height="49" viewBox="0 0 44 49" fill="none" xmlns="http://www.w3.org/2000/svg">
<path d="M27.1774 29.3803C26.9463 28.7967 26.8193 28.1605 26.8193 27.4947C26.8193 26.375 27.1785 25.3391 27.7879 24.4961" stroke="black" stroke-width="1.41417" stroke-miterlimit="10" stroke-linecap="round" stroke-linejoin="round"/>
<path d="M37.1257 29.4711L42.2866 20.6869C43.719 18.249 42.9257 15.1125 40.5066 13.6488L20.6671 1.64399C18.5523 0.364353 15.8001 1.05155 14.5349 3.17506L12.5788 6.45858C12.1631 7.15633 12.3845 8.05857 13.0759 8.48461L26.1771 16.5578C27.4114 17.3185 27.8707 18.8893 27.2403 20.195L26.1491 22.4552C25.9797 22.8062 26.1075 23.2285 26.4432 23.4265L36.8144 29.5479" stroke="black" stroke-width="1.41417" stroke-miterlimit="10" stroke-linecap="round" stroke-linejoin="round"/>
<path d="M42.288 20.6869L14.5625 3.32227" stroke="black" stroke-width="1.41417" stroke-miterlimit="10" stroke-linecap="round" stroke-linejoin="round"/>
<path d="M4.59077 25.25H2.04922C1.46979 25.25 1 25.7197 1 26.2992V33.6423C1 36.894 2.45367 39.8062 4.74661 41.7647" stroke="black" stroke-width="1.41417" stroke-miterlimit="10" stroke-linecap="round" stroke-linejoin="round"/>
<path d="M16.7657 43.0307C20.094 41.2227 22.3535 37.6963 22.3535 33.6423V26.2992C22.3535 25.7198 21.8838 25.25 21.3043 25.25H7.88965" stroke="black" stroke-width="1.41417" stroke-miterlimit="10" stroke-linecap="round" stroke-linejoin="round"/>
<path d="M34.0865 47.8557H36.8485C37.6029 47.8557 38.2145 47.2441 38.2145 46.4898V30.1697C38.2145 29.8904 37.9881 29.6641 37.7088 29.6641H26.0676C25.7788 29.6641 25.5484 29.905 25.5625 30.1934C25.6537 32.0518 25.7521 38.2782 22.5591 41.4712C19.7753 44.255 10.5161 42.869 6.04218 41.9976C4.60726 41.7181 3.17895 42.5098 2.65213 43.8735C2.30141 44.7811 2.40974 45.8021 2.94297 46.616L3.49196 47.4539C3.65628 47.7047 3.93582 47.8558 4.23562 47.8558H30.6925" stroke="black" stroke-width="1.41417" stroke-miterlimit="10" stroke-linecap="round" stroke-linejoin="round"/>
<path d="M16.9538 10.8965L10.4912 21.164" stroke="black" stroke-width="1.41417" stroke-miterlimit="10" stroke-linecap="round" stroke-linejoin="round"/>
<path d="M10.6886 21.2873L10.2932 21.0385C8.55384 19.9437 8.03135 17.6462 9.1261 15.9069L11.7117 11.799C11.8176 11.6308 12.0397 11.5804 12.2078 11.6862L18.2928 15.5162C18.4609 15.6221 18.5114 15.8442 18.4056 16.0123L15.82 20.1202C14.7253 21.8595 12.4278 22.382 10.6886 21.2873Z" stroke="black" stroke-width="1.41417" stroke-miterlimit="10" stroke-linecap="round" stroke-linejoin="round"/>
<path d="M13.6456 32.3319H9.71001C9.2817 32.3319 8.93457 31.9848 8.93457 31.5565V30.1563C8.93457 29.728 9.2817 29.3809 9.71001 29.3809H13.6456C14.0739 29.3809 14.4211 29.728 14.4211 30.1563V31.5565C14.4211 31.9848 14.0739 32.3319 13.6456 32.3319Z" stroke="black" stroke-width="1.41417" stroke-miterlimit="10" stroke-linecap="round" stroke-linejoin="round"/>
<path d="M31.6825 43.3084C33.1489 43.3084 34.3376 42.1196 34.3376 40.6532C34.3376 39.1868 33.1489 37.998 31.6825 37.998C30.2161 37.998 29.0273 39.1868 29.0273 40.6532C29.0273 42.1196 30.2161 43.3084 31.6825 43.3084Z" stroke="black" stroke-width="1.41417" stroke-miterlimit="10" stroke-linecap="round" stroke-linejoin="round"/>
<path d="M31.6826 39.6304V37.0195" stroke="black" stroke-width="1.41417" stroke-miterlimit="10" stroke-linecap="round" stroke-linejoin="round"/>
<path d="M28.3506 32.5195H29.5566" stroke="black" stroke-width="1.41417" stroke-miterlimit="10" stroke-linecap="round" stroke-linejoin="round"/>
</svg>
