<svg width="56" height="57" viewBox="0 0 56 57" fill="none" xmlns="http://www.w3.org/2000/svg">
<path d="M28.3449 0.662156C43.6256 0.689838 56.0274 13.1747 55.9997 28.4831C55.972 43.6809 43.4872 56.055 28.2618 56.0273C12.9534 55.9996 0.60693 43.5978 0.662295 28.234C0.662295 13.0363 13.1194 0.634473 28.3449 0.662156ZM54.6987 28.3724C54.671 13.7837 42.8782 1.93555 28.3449 1.93555C13.7285 1.90787 1.79728 13.7837 1.82496 28.3724C1.82496 42.9611 13.7561 54.8369 28.3725 54.8092C42.9059 54.7816 54.7263 42.9334 54.6987 28.3724Z" fill="black"/>
<path d="M17.1057 38.6979C15.1956 40.6357 13.3132 42.4628 11.5138 44.3728C10.7941 45.1203 10.2958 45.148 9.63141 44.3175C3.76271 37.0093 2.04639 28.8706 5.25757 20.0676C8.49643 11.1815 15.0295 5.78338 24.3862 4.17779C31.6944 2.93207 38.2552 4.86985 44.0408 9.52052C45.0651 10.351 45.0374 10.877 44.0962 11.7628C41.0234 14.7248 38.006 17.7976 34.9333 20.8427C35.1824 21.2026 35.3762 21.4794 35.5976 21.8116C35.7637 21.7008 35.8745 21.6732 35.9852 21.5624C38.9196 18.6281 41.8816 15.7214 44.7606 12.7594C45.6187 11.8735 46.1447 11.9012 46.9475 12.8147C54.4218 20.9811 54.754 34.1303 47.6949 43.2932C39.1964 54.3109 23.2789 56.1103 12.6211 47.2795C11.6522 46.4767 11.4861 45.9231 12.4827 45.0095C14.116 43.5147 15.6108 41.8814 17.2164 40.3589C17.8531 39.7775 17.8531 39.3346 17.1057 38.6979ZM33.826 19.9845C37.1756 16.6626 40.193 13.6175 43.238 10.6001C35.5146 3.5134 21.3965 2.46147 11.9291 11.7905C2.29553 21.3133 3.54125 35.7082 10.6833 43.4593C12.5658 41.5769 14.4482 39.6945 16.3029 37.7567C16.5244 37.5353 16.6074 37.0093 16.5244 36.6771C15.4724 32.8292 16.386 29.3689 18.4898 26.1577C19.9847 23.8878 21.7287 21.7839 23.1959 19.5139C24.7184 17.1609 26.0195 14.6695 27.459 12.2611C27.7081 11.8182 28.0403 11.4306 28.3448 11.0154C28.6216 11.4029 28.9538 11.7628 29.203 12.1504C30.7255 14.7525 32.2757 17.3547 33.826 19.9845ZM13.4239 46.1999C21.5626 53.4527 35.8745 54.0617 45.0651 44.4559C54.2003 34.9331 53.01 20.7873 45.9232 13.6729C42.8228 16.801 39.6947 19.9292 36.5112 23.1127C38.5597 26.047 40.4144 29.2305 40.4698 33.1061C40.5251 37.0923 38.9472 40.3589 35.9022 42.9057C31.9989 46.1169 24.4693 47.5287 18.6282 41.0233C16.9119 42.7396 15.1956 44.4559 13.4239 46.1999ZM28.4002 14.0328C26.4624 16.8287 24.3585 19.7631 22.3931 22.7251C20.9259 24.9397 19.2926 27.1266 18.213 29.535C16.3583 33.6874 17.2995 37.6183 20.3722 40.8849C23.5834 44.2898 27.6251 45.231 31.9989 43.6808C36.2067 42.1859 38.6427 39.0301 39.1964 34.5455C39.667 30.6146 38.0337 27.3481 35.8468 24.303C33.3277 20.7873 30.7809 17.2993 28.4002 14.0328Z" fill="black"/>
<path d="M28.7326 42.6298C23.8605 42.436 19.625 38.2006 19.542 33.716C19.542 33.3561 19.8742 32.9963 20.0403 32.6641C20.2064 32.9963 20.4832 33.3008 20.5386 33.6606C21.1199 38.2283 23.8605 40.9688 28.5111 41.6055C28.8433 41.6609 29.1478 41.9654 29.4523 42.1592C29.1478 42.353 28.8156 42.5744 28.7326 42.6298Z" fill="black"/>
</svg>
