<svg width="48" height="46" viewBox="0 0 48 46" fill="none" xmlns="http://www.w3.org/2000/svg">
<g clip-path="url(#clip0_413_5400)">
<path d="M47.045 36.7509C46.7877 37.4023 46.5427 38.0537 46.2854 38.7184C43.9576 44.6874 37.8442 47.5456 32.2699 45.2324C29.1336 43.9296 26.0095 42.5603 22.9099 41.1512C18.3157 39.0773 15.6081 33.7198 16.429 28.4156C16.4902 27.9902 16.4167 27.7243 16.1349 27.4185C14.0277 25.1718 11.9573 22.8853 9.86229 20.6253C9.66627 20.4126 9.44574 20.2398 9.21297 20.0802C8.0491 19.3358 6.84847 18.6711 5.72135 17.8735C4.88827 17.2752 4.09193 16.5839 3.35685 15.8395C2.60952 15.0817 1.94796 14.2176 1.23738 13.42C0.710575 12.835 0.232775 12.2235 0 11.4259C0 11.0935 0 10.7612 0 10.4288C0.318534 9.05956 1.29864 8.27522 2.24199 7.50417C3.19759 6.73312 4.54523 6.91924 5.39057 7.8764C7.16701 9.89708 8.91894 11.9311 10.6831 13.965C11.0262 14.3638 11.0262 14.8026 10.7076 15.1083C10.4013 15.4141 10.0093 15.3609 9.65402 14.9621C8.01235 13.0743 6.37067 11.1733 4.71675 9.27227C3.89591 8.32839 3.3691 8.30181 2.51151 9.17921C2.25424 9.44509 1.99696 9.69767 1.75193 9.96355C1.27413 10.4953 1.22513 11.1733 1.67843 11.7051C2.76879 12.9813 3.83465 14.2974 5.01078 15.4805C5.67235 16.1452 6.51769 16.5972 7.30177 17.129C8.0491 17.6209 8.80868 18.0729 9.55601 18.5514C9.78878 18.6977 9.9358 18.711 10.1441 18.485C10.6831 17.9 11.2589 17.3417 11.8102 16.7701C12.3371 16.225 12.6066 16.225 13.1456 16.7701C14.9833 18.6445 16.821 20.5322 18.6587 22.4067C18.9037 22.6593 19.21 22.872 19.5286 23.0182C25.936 25.8232 32.3434 28.615 38.7631 31.4067C38.8978 31.4732 39.0449 31.513 39.2409 31.5928C39.3756 30.5825 39.8167 29.8247 40.711 29.4791C41.2991 29.2531 41.8872 29.3063 42.4385 29.6386C43.6146 30.3432 43.8719 31.8321 43.002 33.2413C43.8106 33.6002 44.6069 33.9857 45.4278 34.2915C46.1751 34.5707 46.7509 35.0094 47.045 35.8336C47.045 36.1526 47.045 36.4451 47.045 36.7509ZM18.3402 26.3949C18.524 26.4746 18.6587 26.5411 18.8057 26.6076C24.6251 29.1201 30.4445 31.646 36.2638 34.1585C36.5211 34.2649 36.7784 34.3712 37.0234 34.4909C37.4399 34.7036 37.6115 35.1024 37.4522 35.5012C37.3052 35.8735 36.9376 36.033 36.5211 35.8735C36.4353 35.8469 36.3496 35.807 36.2638 35.7671C32.0494 33.9458 27.8349 32.1246 23.6082 30.3033C21.7215 29.4924 19.8348 28.6681 17.9236 27.8439C17.8746 27.9902 17.8379 28.1231 17.8134 28.2427C16.968 32.8292 19.0998 37.615 23.0202 39.5293C26.2178 41.098 29.5134 42.454 32.7845 43.8232C35.6635 45.033 38.4691 44.6874 41.1153 42.999C42.512 42.1083 43.6023 40.872 44.4354 39.3166C44.2639 39.2368 44.1169 39.1704 43.9821 39.1172C42.5487 38.4924 41.1153 37.8809 39.6819 37.256C39.2041 37.0433 39.0204 36.6844 39.1796 36.259C39.3389 35.8336 39.7064 35.6741 40.172 35.8735C40.5885 36.0463 40.9928 36.2324 41.4094 36.4052C42.61 36.9237 43.8106 37.4422 45.048 37.9739C45.195 37.5618 45.3298 37.2029 45.4768 36.8306C45.7463 36.1128 45.7218 36.0729 45.048 35.7804C36.9989 32.2442 28.9375 28.7346 20.8639 25.225C20.2759 24.9724 19.6756 24.7198 19.063 24.454C18.818 25.1187 18.5975 25.7302 18.3402 26.3949ZM16.9803 26.0891C17.2253 25.4244 17.4581 24.7597 17.7276 24.1083C17.8624 23.776 17.8011 23.5766 17.5683 23.3373C15.9512 21.7021 14.3585 20.067 12.7536 18.4185C12.6678 18.3387 12.5698 18.259 12.4718 18.1792C11.9695 18.6844 11.4917 19.1763 11.0507 19.6283C13.0354 21.7952 14.9956 23.9355 16.9803 26.0891ZM42.1689 31.6593C42.1689 31.2073 41.8259 30.8483 41.4094 30.8483C40.9928 30.8483 40.662 31.2206 40.662 31.6726C40.662 32.1246 40.9928 32.4835 41.4216 32.4702C41.8504 32.4835 42.1812 32.1113 42.1689 31.6593Z" fill="black"/>
<path d="M42.0955 22.4196C42.0955 23.6427 41.8137 24.0548 40.7234 24.5599C40.6254 24.5998 40.5519 24.7328 40.5028 24.8391C40.3803 25.1449 40.2701 25.4506 40.1598 25.7564C39.8045 26.687 39.0449 27.0459 38.1874 26.687C37.7218 26.4876 37.244 26.2882 36.7907 26.0754C36.0311 25.7165 35.7493 24.9588 36.0189 24.1079C36.0679 23.9484 36.1169 23.8022 36.1904 23.6427C36.3864 23.1774 36.5457 22.7653 36.2026 22.2468C35.9454 21.8613 36.0556 21.3561 36.2639 20.9174C36.8887 19.5481 38.3589 18.7904 39.731 19.1493C41.1277 19.4949 42.0955 20.8376 42.0955 22.4196ZM40.6009 22.9913C40.9194 21.9942 40.4538 20.9706 39.5595 20.6515C38.7019 20.3325 37.7586 20.7977 37.5135 21.6619C38.0893 22.0607 38.1628 22.2867 37.9056 22.978C37.6973 23.5363 37.489 24.1079 37.2808 24.7062C37.8198 24.9322 38.3099 25.1449 38.8244 25.3709C39.0449 24.7726 39.241 24.2409 39.437 23.6958C39.7065 22.9514 39.8903 22.845 40.6009 22.9913Z" fill="black"/>
<path d="M34.267 3.16969C34.267 3.62169 34.267 4.06039 34.267 4.51238C34.267 5.73542 33.9117 6.79894 33.1154 7.66305C32.4415 8.39422 32.1475 9.24503 32.172 10.2687C32.1965 11.053 31.976 11.3986 31.5105 11.4119C31.0327 11.4252 30.8121 11.053 30.7999 10.2554C30.7754 8.8595 31.1797 7.64975 32.1108 6.666C32.6498 6.09436 32.8948 5.37649 32.8948 4.55226C32.8948 3.52863 32.8948 2.4917 32.8948 1.46806C32.8948 0.896424 33.1644 0.550781 33.5932 0.550781C34.022 0.550781 34.267 0.896424 34.2792 1.48136C34.267 2.0397 34.267 2.61134 34.267 3.16969Z" fill="black"/>
<path d="M36.3744 10.6148C36.3744 9.88364 36.3622 9.15248 36.3744 8.42131C36.3867 7.42426 36.7175 6.53357 37.33 5.78911C37.7588 5.25735 38.2366 4.75218 38.7144 4.2603C39.0207 3.94125 39.425 3.94125 39.6945 4.23371C39.9763 4.53947 39.9763 4.97817 39.6578 5.33711C39.3392 5.69605 39.0207 6.05499 38.6899 6.38733C38.0283 7.06533 37.7221 7.87626 37.7466 8.8733C37.7711 10.1894 37.7588 11.4922 37.7466 12.8083C37.7466 12.9545 37.7466 13.1141 37.7343 13.2603C37.6731 13.699 37.379 13.9516 36.9992 13.9117C36.6072 13.8718 36.3867 13.6192 36.3744 13.1938C36.3622 12.343 36.3622 11.4789 36.3744 10.6148Z" fill="black"/>
<path d="M32.9809 21.741C32.9686 23.0039 32.0008 24.0541 30.8369 24.0541C29.673 24.0541 28.7052 23.0039 28.7052 21.741C28.6929 20.4648 29.6853 19.388 30.8737 19.4145C32.0375 19.4278 32.9931 20.4781 32.9809 21.741ZM31.6087 21.7277C31.6087 21.289 31.2535 20.9035 30.8492 20.9035C30.4449 20.9035 30.0896 21.2757 30.0896 21.7277C30.0896 22.1797 30.4326 22.5519 30.8492 22.5519C31.2535 22.5519 31.6087 22.1664 31.6087 21.7277Z" fill="black"/>
<path d="M32.1722 15.4519C32.1722 15.8508 32.1845 16.2496 32.1722 16.6484C32.16 17.1004 31.9027 17.3796 31.5351 17.4062C31.1431 17.4327 30.8246 17.1403 30.8123 16.675C30.7878 15.8242 30.7878 14.9867 30.8123 14.1358C30.8246 13.7104 31.1431 13.418 31.4984 13.418C31.8782 13.418 32.16 13.737 32.1722 14.2023C32.1845 14.6277 32.1722 15.0398 32.1722 15.4519Z" fill="black"/>
<path d="M42.8799 16.6756C42.5001 16.6889 42.1693 16.3433 42.1693 15.9312C42.1571 15.5324 42.4389 15.2 42.8186 15.1734C43.2107 15.1468 43.5415 15.4659 43.5537 15.878C43.566 16.3034 43.2719 16.6623 42.8799 16.6756Z" fill="black"/>
<path d="M24.9072 22.3132C24.9072 22.7386 24.5887 23.071 24.2089 23.071C23.8291 23.0577 23.5106 22.6987 23.5228 22.2866C23.5351 21.8878 23.8291 21.5687 24.2089 21.5687C24.6009 21.5555 24.9072 21.8878 24.9072 22.3132Z" fill="black"/>
<path d="M32.9921 25.7695C33.3841 25.7695 33.6904 26.1019 33.6904 26.5273C33.6782 26.9394 33.3474 27.285 32.9676 27.2717C32.6 27.2585 32.306 26.9261 32.306 26.5273C32.2938 26.1019 32.6 25.7695 32.9921 25.7695Z" fill="black"/>
</g>
<defs>
<clipPath id="clip0_413_5400">
<rect width="47.045" height="46" fill="white"/>
</clipPath>
</defs>
</svg>
