<svg width="51" height="41" viewBox="0 0 51 41" fill="none" xmlns="http://www.w3.org/2000/svg">
<path d="M6.9082 17.7556V17.451C6.9082 13.1633 10.384 9.6875 14.6717 9.6875H42.2356C46.5232 9.6875 49.9991 13.1633 49.9991 17.451V26.4042" stroke="black" stroke-width="1.47887" stroke-miterlimit="10" stroke-linecap="round" stroke-linejoin="round"/>
<path d="M49.9991 29.8537V34.8441C49.9991 35.9549 49.0985 36.8554 47.9877 36.8554H8.91956C7.80874 36.8554 6.9082 35.9549 6.9082 34.8441V21.2051" stroke="black" stroke-width="1.47887" stroke-miterlimit="10" stroke-linecap="round" stroke-linejoin="round"/>
<path d="M6.90896 28.1702H1.93928C1.42049 28.1702 1 27.7497 1 27.2309V25.576C1 25.0572 1.42049 24.6367 1.93928 24.6367H6.90896V28.1702Z" stroke="black" stroke-width="1.47887" stroke-miterlimit="10" stroke-linecap="round" stroke-linejoin="round"/>
<path d="M17.727 40.2579H12.4193C11.7357 40.2579 11.1816 39.7038 11.1816 39.0203V36.8574H18.9645V39.0203C18.9645 39.7038 18.4104 40.2579 17.727 40.2579Z" stroke="black" stroke-width="1.47887" stroke-miterlimit="10" stroke-linecap="round" stroke-linejoin="round"/>
<path d="M44.4897 40.2579H39.182C38.4984 40.2579 37.9443 39.7038 37.9443 39.0203V36.8574H45.7272V39.0203C45.7272 39.7038 45.1731 40.2579 44.4897 40.2579Z" stroke="black" stroke-width="1.47887" stroke-miterlimit="10" stroke-linecap="round" stroke-linejoin="round"/>
<path d="M16.4457 32.4699H13.1098C12.5783 32.4699 12.1475 32.0391 12.1475 31.5076V30.353C12.1475 29.8215 12.5783 29.3906 13.1098 29.3906H16.4457C16.9772 29.3906 17.4081 29.8215 17.4081 30.353V31.5076C17.4081 32.0391 16.9772 32.4699 16.4457 32.4699Z" stroke="black" stroke-width="1.47887" stroke-miterlimit="10" stroke-linecap="round" stroke-linejoin="round"/>
<path d="M25.017 32.4699H21.6811C21.1496 32.4699 20.7188 32.0391 20.7188 31.5076V30.353C20.7188 29.8215 21.1496 29.3906 21.6811 29.3906H25.017C25.5485 29.3906 25.9794 29.8215 25.9794 30.353V31.5076C25.9794 32.0391 25.5485 32.4699 25.017 32.4699Z" stroke="black" stroke-width="1.47887" stroke-miterlimit="10" stroke-linecap="round" stroke-linejoin="round"/>
<path d="M38.9596 9.68648H17.4082V5.64838C17.4082 3.08116 19.4894 1 22.0566 1H34.3112C36.8784 1 38.9595 3.08116 38.9595 5.64838V9.68648H38.9596Z" stroke="black" stroke-width="1.47887" stroke-miterlimit="10" stroke-linecap="round" stroke-linejoin="round"/>
<path d="M24.3809 4.53061L27.8452 1.06641" stroke="black" stroke-width="1.47887" stroke-miterlimit="10" stroke-linecap="round" stroke-linejoin="round"/>
<path d="M28.1846 9.6849L31.6488 6.2207" stroke="black" stroke-width="1.47887" stroke-miterlimit="10" stroke-linecap="round" stroke-linejoin="round"/>
</svg>
