<svg width="34" height="54" viewBox="0 0 34 54" fill="none" xmlns="http://www.w3.org/2000/svg">
<path d="M18.8494 1H15.15C14.2177 1 13.4619 1.75579 13.4619 2.68811V4.10371H20.5374V2.68811C20.5375 1.75579 19.7817 1 18.8494 1Z" stroke="black" stroke-width="1.57522" stroke-miterlimit="10" stroke-linecap="round" stroke-linejoin="round"/>
<path d="M15.5781 29.8312V22.8906H18.4221V32.1666" stroke="black" stroke-width="1.57522" stroke-miterlimit="10" stroke-linecap="round" stroke-linejoin="round"/>
<path d="M15.1494 14.7773H18.8508" stroke="black" stroke-width="1.57522" stroke-miterlimit="10" stroke-linecap="round" stroke-linejoin="round"/>
<path d="M12.1973 36.2062C12.1973 35.4591 12.8029 34.8535 13.55 34.8535C14.297 34.8535 14.9027 35.4591 14.9027 36.2062" stroke="black" stroke-width="1.57522" stroke-miterlimit="10" stroke-linecap="round" stroke-linejoin="round"/>
<path d="M12.1973 46.0441C12.1973 45.297 12.8029 44.6914 13.55 44.6914C14.297 44.6914 14.9027 45.297 14.9027 46.0441" stroke="black" stroke-width="1.57522" stroke-miterlimit="10" stroke-linecap="round" stroke-linejoin="round"/>
<path d="M16.7754 39.3918C16.7754 38.6447 17.381 38.0391 18.1281 38.0391C18.8752 38.0391 19.4808 38.6447 19.4808 39.3918" stroke="black" stroke-width="1.57522" stroke-miterlimit="10" stroke-linecap="round" stroke-linejoin="round"/>
<path d="M20.0928 43.2183C20.0928 42.2758 20.8569 41.5117 21.7994 41.5117C22.7419 41.5117 23.506 42.2758 23.506 43.2183" stroke="black" stroke-width="1.57522" stroke-miterlimit="10" stroke-linecap="round" stroke-linejoin="round"/>
<path d="M31.2399 22.8891H2.75997C2.22418 22.8891 1.75004 22.5421 1.588 22.0316L1.05852 20.3634C0.806799 19.5705 1.39866 18.7617 2.23048 18.7617H31.7695C32.6013 18.7617 33.1932 19.5705 32.9415 20.3634L32.412 22.0316C32.2499 22.5421 31.7757 22.8891 31.2399 22.8891Z" stroke="black" stroke-width="1.57522" stroke-miterlimit="10" stroke-linecap="round" stroke-linejoin="round"/>
<path d="M7.51278 45.7707C8.37107 48.4903 10.9132 50.4624 13.9165 50.4624H20.0845C23.7927 50.4624 26.7988 47.4563 26.7988 43.748V36.9067C26.7988 36.3149 26.4835 35.7679 25.9713 35.4714L25.9142 35.4383C25.4229 35.154 25.1264 34.6372 25.0881 34.0708C25.0124 32.9512 24.0806 32.0021 22.8721 32.0021C22.2881 32.0021 21.7574 32.228 21.3616 32.597C21.0191 32.9162 20.5017 32.9305 20.1104 32.6733C19.7619 32.4443 19.3451 32.3108 18.8966 32.3108C18.8158 32.3108 18.7362 32.3152 18.6578 32.3237C18.2023 32.3732 17.7679 32.1014 17.5967 31.6764C17.199 30.6891 16.2326 29.9922 15.1028 29.9922C13.9673 29.9922 12.9967 30.6962 12.6028 31.6915C12.4383 32.1074 12.0099 32.37 11.5652 32.3231C11.4885 32.315 11.4107 32.3108 11.3318 32.3108C10.235 32.3108 9.32365 33.1078 9.14513 34.1482C9.05755 34.6589 8.75972 35.1089 8.30386 35.3554L8.07219 35.4806C7.5362 35.7702 7.20215 36.3305 7.20215 36.9396V42.7398" stroke="black" stroke-width="1.57522" stroke-miterlimit="10" stroke-linecap="round" stroke-linejoin="round"/>
<path d="M29.5292 26.0019V22.8906H4.47168V43.7484C4.47168 48.9646 8.7002 53.1931 13.9164 53.1931H20.0844C25.3006 53.1931 29.5291 48.9646 29.5291 43.7484V29.0473" stroke="black" stroke-width="1.57522" stroke-miterlimit="10" stroke-linecap="round" stroke-linejoin="round"/>
<path d="M9.33398 10.4157V18.7622H24.6642V7.55629C24.6642 5.64933 23.1183 4.10352 21.2113 4.10352H12.7869C10.9448 4.10352 9.44005 5.546 9.33966 7.36306" stroke="black" stroke-width="1.57522" stroke-miterlimit="10" stroke-linecap="round" stroke-linejoin="round"/>
</svg>
