<svg width="45" height="52" viewBox="0 0 45 52" fill="none" xmlns="http://www.w3.org/2000/svg">
<path d="M18.9647 46.6875H36.5148V48.8159C36.5148 50.0223 35.5369 51.0002 34.3305 51.0002H13.5222C12.3158 51.0002 11.3379 50.0223 11.3379 48.8159V46.6875H15.4153" stroke="black" stroke-width="1.51635" stroke-miterlimit="10" stroke-linecap="round" stroke-linejoin="round"/>
<path d="M36.5148 46.6869C35.6891 42.4617 34.7832 37.3585 32.0524 34.2383H15.8003C13.0696 37.3585 12.1636 42.4617 11.3379 46.6869" stroke="black" stroke-width="1.51635" stroke-miterlimit="10" stroke-linecap="round" stroke-linejoin="round"/>
<path d="M26.9383 34.2378H20.9141V32.0027C20.9141 31.4943 21.3262 31.082 21.8347 31.082H26.0178C26.5262 31.082 26.9384 31.4942 26.9384 32.0027V34.2378H26.9383Z" stroke="black" stroke-width="1.51635" stroke-miterlimit="10" stroke-linecap="round" stroke-linejoin="round"/>
<path d="M25.2459 28.7578L23.9267 31.0822L22.6074 28.7578" stroke="black" stroke-width="1.51635" stroke-miterlimit="10" stroke-linecap="round" stroke-linejoin="round"/>
<path d="M35.2064 8.73976L35.7644 5.93359H9.88764C8.88665 5.93359 8.0752 6.74505 8.0752 7.74604C8.0752 8.41293 8.44145 9.02605 9.02878 9.34206L13.1977 11.5856L16.8068 29.9585L15.8 34.2391H32.0521L31.0453 29.9585L34.5274 12.2314" stroke="black" stroke-width="1.51635" stroke-miterlimit="10" stroke-linecap="round" stroke-linejoin="round"/>
<path d="M35.0467 24.9488H32.0293L32.5805 22.1426H35.0467C36.198 22.1426 37.2757 21.5769 37.9296 20.6294L40.254 17.2614C40.6596 16.6737 40.8739 15.9858 40.8739 15.2718V10.5333C40.8739 9.54434 40.0693 8.73976 39.0802 8.73976H35.2065L35.7645 5.93359H39.0802C41.6166 5.93359 43.6801 7.99705 43.6801 10.5333V15.2718C43.6801 16.5578 43.294 17.7968 42.5635 18.8554L40.2391 22.2234C39.0613 23.9299 37.1203 24.9488 35.0467 24.9488Z" stroke="black" stroke-width="1.51635" stroke-miterlimit="10" stroke-linecap="round" stroke-linejoin="round"/>
<path d="M32.8114 5.93307H15.043V4.40792C15.043 3.433 15.8333 2.64258 16.8083 2.64258H31.0461C32.021 2.64258 32.8114 3.4329 32.8114 4.40792V5.93307Z" stroke="black" stroke-width="1.51635" stroke-miterlimit="10" stroke-linecap="round" stroke-linejoin="round"/>
<path d="M23.9277 0.757812V19.7995" stroke="black" stroke-width="1.51635" stroke-miterlimit="10" stroke-linecap="round" stroke-linejoin="round"/>
<path d="M24.1133 43.2871C25.6736 43.2871 26.9384 42.0222 26.9384 40.4619C26.9384 38.9016 25.6736 37.6367 24.1133 37.6367C22.553 37.6367 21.2881 38.9016 21.2881 40.4619C21.2881 42.0222 22.553 43.2871 24.1133 43.2871Z" stroke="black" stroke-width="1.51635" stroke-miterlimit="10" stroke-linecap="round" stroke-linejoin="round"/>
</svg>
