<svg width="47" height="39" viewBox="0 0 47 39" fill="none" xmlns="http://www.w3.org/2000/svg">
<path d="M24.8299 34.8671H2.55742C1.6973 34.8671 1 34.1698 1 33.3097V2.55742C1 1.6973 1.6973 1 2.55742 1H8.28213M11.4713 1H44.7265C45.5866 1 46.2839 1.6973 46.2839 2.55742V33.3096C46.2839 34.1697 45.5866 34.867 44.7265 34.867H28.019M32.6814 30.9391H42.2886C42.5951 30.9391 42.8436 30.6907 42.8436 30.3842V5.48344C42.8436 5.17702 42.5951 4.92855 42.2887 4.92855H32.6814M32.6814 30.9391V4.92855M32.6814 30.9391H4.99474C4.68823 30.9391 4.43976 30.6907 4.43986 30.3842V5.48344C4.43986 5.17702 4.68832 4.92855 4.99474 4.92855H32.6814M8.75819 27.0618H28.0191M17.0125 7.96875C17.0125 8.99461 16.6481 8.99461 16.6481 10.0204C16.6481 11.0463 17.0125 11.0463 17.0125 12.0723C17.0125 13.0982 16.6481 13.0982 16.6481 14.1242M20.31 10.5373C20.31 11.1348 19.9455 11.1348 19.9455 11.7324C19.9455 12.3303 20.31 12.3303 20.31 12.9282C20.31 13.5262 19.9455 13.5261 19.9455 14.1241M35.9401 8.50345H39.7313M35.9401 11.7112H39.7313M12.2805 38H6.07814C5.47241 38 4.9814 37.509 4.9814 36.9033V34.8669H13.3772V36.9033C13.3772 37.509 12.8862 38 12.2805 38ZM41.2062 38H35.0039C34.3982 38 33.9072 37.509 33.9072 36.9033V34.8669H42.303V36.9033C42.303 37.509 41.812 38 41.2062 38ZM9.69505 17.7752C9.2547 17.7752 8.91174 18.1574 8.95848 18.5952C9.46617 23.3547 13.4942 27.062 18.3885 27.062C23.2828 27.062 27.3107 23.3547 27.8184 18.5952C27.8652 18.1574 27.5221 17.7752 27.0819 17.7752H9.69505ZM39.8285 25.0293C39.8285 26.1299 38.9363 27.0221 37.8357 27.0221C36.7352 27.0221 35.843 26.1299 35.843 25.0293C35.843 23.9288 36.7352 23.0366 37.8357 23.0366C38.9363 23.0366 39.8285 23.9288 39.8285 25.0293ZM39.8285 17.7747C39.8285 18.8753 38.9363 19.7675 37.8357 19.7675C36.7352 19.7675 35.843 18.8753 35.843 17.7747C35.843 16.6742 36.7352 15.782 37.8357 15.782C38.9363 15.782 39.8285 16.6742 39.8285 17.7747Z" stroke="black" stroke-width="1.36672" stroke-miterlimit="10" stroke-linecap="round" stroke-linejoin="round"/>
</svg>
