<svg width="55" height="55" viewBox="0 0 55 55" fill="none" xmlns="http://www.w3.org/2000/svg">
<path d="M27.4998 4.60505e-05C42.6796 0.0550453 55.0269 12.4574 54.9719 27.6372C54.9169 42.7619 42.4596 55.1093 27.4173 54.9993C12.1275 54.8893 -0.0548137 42.6519 0.000185494 27.3897C0.0276851 12.2649 12.4025 -0.0274536 27.4998 4.60505e-05ZM53.7344 27.5546C53.7344 13.0623 42.0196 1.29253 27.5823 1.23753C13.035 1.21003 1.21018 12.9799 1.21018 27.4721C1.15518 41.9919 12.98 53.7893 27.4998 53.7893C41.9646 53.7893 53.7069 42.0194 53.7344 27.5546Z" fill="black"/>
<path d="M32.5039 21.6135C32.9164 21.971 33.1639 22.1634 33.4939 22.4659C36.9038 19.0285 40.2863 15.6185 43.6687 12.2086C44.9612 10.9161 44.9612 10.9161 46.1987 12.2911C54.6411 21.7785 53.4311 37.0407 43.5588 45.7581C34.6214 53.623 21.3666 53.898 12.1267 46.4181C10.6692 45.2356 10.6692 45.2081 11.9617 43.9431C16.0041 39.9007 20.0741 35.8583 24.199 31.7058C23.924 31.4033 23.704 31.1283 23.374 30.7708C19.2766 34.8683 15.2616 38.9107 11.2742 42.9257C9.78922 44.4106 9.78922 44.4106 8.41424 42.7332C0.604349 32.9708 1.48434 18.946 10.4492 10.0911C19.2766 1.40124 33.4664 0.823751 43.0088 8.77114C44.3012 9.84362 44.3012 9.87113 43.1187 11.0811C39.6263 14.5461 36.1063 18.0385 32.5039 21.6135ZM34.3739 34.8133C34.9239 34.7033 35.3089 34.5933 35.7214 34.5658C38.5813 34.2908 40.9463 36.8757 40.3413 39.6257C39.9288 41.4682 38.7738 42.5957 36.9313 43.0082C35.3364 43.3657 33.5764 42.5957 32.6139 41.1932C31.6514 39.7632 31.5964 37.8657 32.6689 36.4358C33.1639 35.7758 33.1914 35.2808 32.7514 34.6483C32.3389 34.0708 32.0089 33.4108 31.6239 32.7233C29.7814 33.5758 27.994 33.7408 26.234 32.9158C25.4365 32.5308 24.969 32.6683 24.364 33.2733C20.7616 36.9307 17.1316 40.5332 13.5017 44.1631C13.1992 44.4656 12.8967 44.8231 12.5942 45.1531C20.5141 52.3855 35.0614 53.293 44.3837 43.3107C53.5411 33.4658 51.6161 19.386 44.8237 12.8411C41.4413 16.251 38.0313 19.6335 34.6764 23.0434C34.4839 23.2359 34.3464 23.7309 34.4564 23.9509C35.8313 27.0034 35.1714 29.6433 32.8064 32.0083C33.3289 32.9158 33.8239 33.8233 34.3739 34.8133ZM42.4863 10.0086C33.9339 2.39123 19.6066 2.08874 10.5867 11.6861C1.51183 21.3385 3.13432 35.2533 9.67922 42.1832C11.2742 40.5882 12.8967 38.9657 14.3817 37.4807C11.5217 37.5082 9.48672 36.1608 8.79923 33.5758C8.19424 31.2933 9.21173 28.8734 11.3017 27.7184C13.6667 26.3984 15.9491 26.9759 18.4241 29.5609C19.6891 29.0934 21.0091 28.5984 22.2465 28.1309C22.219 23.1809 23.924 21.2835 29.1215 20.321C29.6439 19.3035 29.4514 18.671 28.434 17.9835C26.7015 16.8285 26.3165 14.5736 27.279 12.7036C28.1865 10.9711 30.1389 10.0911 32.0364 10.5586C34.0714 11.0536 35.3914 12.8136 35.3089 14.9035C35.2264 17.131 33.7964 18.506 30.7439 19.111C30.7989 19.661 30.8264 20.2385 30.8814 20.816C31.2664 20.706 31.7889 20.7335 32.0364 20.486C35.4739 17.021 38.9388 13.5561 42.4863 10.0086ZM28.654 32.0633C31.4864 32.0633 33.8514 29.7534 33.8514 26.9484C33.8514 24.1159 31.5689 21.7785 28.709 21.7785C25.8765 21.7509 23.539 24.0609 23.5115 26.8934C23.484 29.6983 25.8215 32.0633 28.654 32.0633ZM13.7767 36.2707C16.0041 36.2707 17.8191 34.5108 17.8466 32.3108C17.8741 30.1383 16.0591 28.2684 13.8592 28.2684C11.6592 28.2409 9.81672 30.0558 9.81672 32.2558C9.78922 34.4558 11.5492 36.2432 13.7767 36.2707ZM33.9339 14.6836C33.9339 13.0886 32.6964 11.7961 31.1014 11.7411C29.479 11.6861 28.104 13.0336 28.104 14.6836C28.104 16.2785 29.369 17.571 30.9639 17.5985C32.6139 17.6535 33.9339 16.361 33.9339 14.6836ZM33.2739 38.8557C33.3014 40.4507 34.5664 41.7157 36.1613 41.7157C37.8113 41.7157 39.1313 40.3682 39.1038 38.7457C39.0763 37.1507 37.7838 35.8858 36.1889 35.8858C34.5114 35.8583 33.2464 37.1782 33.2739 38.8557ZM18.9466 30.7708C19.0016 31.6508 19.0291 32.3933 19.0566 32.9708C20.1841 31.8433 21.3391 30.6883 22.604 29.4234C21.3666 29.8908 20.1841 30.3308 18.9466 30.7708Z" fill="black"/>
</svg>
