<svg width="40" height="47" viewBox="0 0 40 47" fill="none" xmlns="http://www.w3.org/2000/svg">
<path d="M38.0887 46.2916H1.91127C1.40798 46.2916 1 45.8836 1 45.3803V39.457H36.7218C37.98 39.457 39 40.477 39 41.7352V45.3803C39 45.8836 38.592 46.2916 38.0887 46.2916Z" stroke="#121605" stroke-width="1.36691" stroke-miterlimit="10" stroke-linecap="round" stroke-linejoin="round"/>
<path d="M31.415 33.0548H32.4174C33.4805 33.0548 34.3423 32.193 34.3423 31.13C34.3423 30.0669 33.4805 29.2051 32.4174 29.2051H31.415" stroke="#121605" stroke-width="1.36691" stroke-miterlimit="10" stroke-linecap="round" stroke-linejoin="round"/>
<path d="M27.1572 22.0176V23.6434" stroke="#121605" stroke-width="1.36691" stroke-miterlimit="10" stroke-linecap="round" stroke-linejoin="round"/>
<path d="M38.8175 5.96094H18.8357C18.0808 5.96094 17.4688 6.57295 17.4688 7.32784V10.6602" stroke="#121605" stroke-width="1.36691" stroke-miterlimit="10" stroke-linecap="round" stroke-linejoin="round"/>
<path d="M34.4436 1H1.91127C1.40798 1 1 1.40798 1 1.91127V10.8424H38.0887C38.592 10.8424 39 10.4344 39 9.93109V5.55636C39 3.03997 36.96 1 34.4436 1Z" stroke="#121605" stroke-width="1.36691" stroke-miterlimit="10" stroke-linecap="round" stroke-linejoin="round"/>
<path d="M9.0498 42.8711H30.9495" stroke="#121605" stroke-width="1.36691" stroke-miterlimit="10" stroke-linecap="round" stroke-linejoin="round"/>
<path d="M6.78431 34.9823C7.83428 34.7343 8.48447 33.6822 8.23654 32.6322C7.98861 31.5823 6.93646 30.9321 5.88649 31.18C4.83652 31.4279 4.18634 32.4801 4.43426 33.53C4.68219 34.58 5.73435 35.2302 6.78431 34.9823Z" stroke="#121605" stroke-width="1.36691" stroke-miterlimit="10" stroke-linecap="round" stroke-linejoin="round"/>
<path d="M20.9814 39.2744V36.7017C20.9814 36.4501 21.1855 36.2461 21.4371 36.2461H32.8778C33.1295 36.2461 33.3334 36.4501 33.3334 36.7017V39.2744" stroke="#121605" stroke-width="1.36691" stroke-miterlimit="10" stroke-linecap="round" stroke-linejoin="round"/>
<path d="M28.3261 36.2389C29.9984 36.1398 31.3239 34.7522 31.3239 33.0551V28.69C31.3239 28.4383 31.1199 28.2344 30.8683 28.2344H23.4478C23.1962 28.2344 22.9922 28.4383 22.9922 28.69V33.0551C22.9922 34.7493 24.3132 36.135 25.9814 36.2383" stroke="#121605" stroke-width="1.36691" stroke-miterlimit="10" stroke-linecap="round" stroke-linejoin="round"/>
<path d="M32.8778 16.8122H21.4371C21.1855 16.8122 20.9814 16.6081 20.9814 16.3565V14.0572C20.9814 13.8056 21.1855 13.6016 21.4371 13.6016H32.8778C33.1295 13.6016 33.3334 13.8056 33.3334 14.0572V16.3565C33.3334 16.6081 33.1294 16.8122 32.8778 16.8122Z" stroke="#121605" stroke-width="1.36691" stroke-miterlimit="10" stroke-linecap="round" stroke-linejoin="round"/>
<path d="M22.9922 13.4725V11.1152" stroke="#121605" stroke-width="1.36691" stroke-miterlimit="10" stroke-linecap="round" stroke-linejoin="round"/>
<path d="M31.3239 16.9763V20.9254C31.3239 21.4287 30.916 21.8367 30.4127 21.8367H23.9035C23.4002 21.8367 22.9922 21.4287 22.9922 20.9254V16.9258" stroke="#121605" stroke-width="1.36691" stroke-miterlimit="10" stroke-linecap="round" stroke-linejoin="round"/>
<path d="M31.3232 11.1152V13.4725" stroke="#121605" stroke-width="1.36691" stroke-miterlimit="10" stroke-linecap="round" stroke-linejoin="round"/>
<path d="M16.2001 39.2882L11.6992 11.0234" stroke="#121605" stroke-width="1.36691" stroke-miterlimit="10" stroke-linecap="round" stroke-linejoin="round"/>
<path d="M1 11.0254V39.2742" stroke="#121605" stroke-width="1.36691" stroke-miterlimit="10" stroke-linecap="round" stroke-linejoin="round"/>
<path d="M4.40723 4.95508V6.96634" stroke="#121605" stroke-width="1.36691" stroke-miterlimit="10" stroke-linecap="round" stroke-linejoin="round"/>
<path d="M6.86426 4.95508V6.96634" stroke="#121605" stroke-width="1.36691" stroke-miterlimit="10" stroke-linecap="round" stroke-linejoin="round"/>
<path d="M9.32129 4.95508V6.96634" stroke="#121605" stroke-width="1.36691" stroke-miterlimit="10" stroke-linecap="round" stroke-linejoin="round"/>
</svg>
