<svg width="54" height="54" viewBox="0 0 54 54" fill="none" xmlns="http://www.w3.org/2000/svg">
<path d="M26.919 54.0003C12.069 54.0003 0 41.8772 0 27.0002C0 12.0962 12.177 -0.0538208 27.081 0.000179306C41.9041 0.0271793 54.0271 12.1772 54.0001 27.0272C54.0001 41.9312 41.8771 54.0003 26.919 54.0003ZM52.8121 27.0002C52.8121 12.7982 41.2831 1.24218 27.081 1.21518C12.798 1.18818 1.215 12.7442 1.215 27.0002C1.215 41.2292 12.852 52.8393 27.081 52.8123C41.2291 52.8123 52.8121 41.1752 52.8121 27.0002Z" fill="black"/>
<path d="M34.0196 19.1699C34.6676 19.8719 35.1536 19.8179 35.7476 19.1969C38.0696 16.8209 40.4456 14.4719 42.7946 12.1229C44.1986 10.7189 44.1986 10.7189 45.5486 12.2579C53.1896 21.0329 52.5956 34.9109 44.2256 43.6049C35.6126 52.5419 21.6806 53.4329 11.9876 45.6299C10.5026 44.4419 10.5026 44.4149 11.8256 43.1189C14.2826 40.6889 16.7396 38.2589 19.4666 35.5319C17.3336 36.2879 15.8486 37.1789 14.6066 38.6099C13.3916 39.9869 11.9876 41.2019 10.7186 42.5519C9.90858 43.4429 9.39558 43.2809 8.69357 42.4439C-1.78244 30.0509 2.96956 10.7729 18.0896 4.83286C26.7836 1.43086 34.9376 2.83486 42.3086 8.58587C43.2806 9.34187 43.4156 9.88187 42.4436 10.7999C39.6086 13.5539 36.8276 16.3889 34.0196 19.1699ZM31.8866 33.4799C30.6716 35.3699 29.1866 36.4769 27.1346 36.7739C25.0286 37.0709 23.3006 36.2069 22.0046 35.1539C18.7916 38.3399 15.6866 41.4179 12.6086 44.5229C21.1676 52.2449 35.5856 51.2729 43.7666 42.3359C52.3256 32.9939 50.9486 19.3589 44.2526 12.7169C41.6066 15.3899 38.9606 18.0359 36.3416 20.6549C36.7736 21.4379 37.4216 22.3019 37.7186 23.2469C37.9886 24.1379 38.4206 24.4889 39.2846 24.7589C42.0386 25.5689 43.8746 28.2689 43.6586 30.9959C43.4156 33.9389 41.3366 36.2609 38.4476 36.7199C35.6126 37.1789 33.5066 35.9639 31.8866 33.4799ZM41.5256 9.69287C34.6406 3.13186 20.4116 1.29586 10.7456 11.1779C1.18756 20.9789 3.37457 35.0189 9.55758 41.3909C11.1236 39.8249 12.6626 38.2589 14.1746 36.7739C14.2826 36.8279 14.2016 36.7739 14.1206 36.7469C10.9886 35.9369 9.09857 33.7499 8.99057 30.7799C8.88257 27.9719 10.7456 25.5959 13.6886 24.5969C14.0936 24.4619 14.4986 23.9759 14.6336 23.5709C15.3356 21.3839 16.7126 19.8719 18.8996 19.2779C19.8176 19.0349 20.1686 18.6839 20.4386 17.7659C21.1676 15.0659 23.5976 13.2839 26.3246 13.2299C29.0516 13.1759 31.5356 15.0389 32.3456 17.7929C32.4266 18.0899 32.5076 18.3869 32.5616 18.5489C35.5586 15.5789 38.5286 12.6359 41.5256 9.69287ZM20.1686 30.7799C20.2226 27.9449 18.0356 25.6499 15.2546 25.6229C12.5276 25.5959 10.2596 27.8369 10.2326 30.5639C10.2056 33.3179 12.3656 35.5859 15.0926 35.6129C17.8736 35.6669 20.1146 33.5339 20.1686 30.7799ZM21.3836 30.6719C21.3836 33.4529 23.5706 35.6129 26.3246 35.6129C29.1056 35.6129 31.2656 33.4529 31.2656 30.6719C31.2656 27.8909 29.1326 25.6769 26.3786 25.6229C23.6246 25.5959 21.3836 27.8369 21.3836 30.6719ZM42.4436 30.7529C42.4976 27.9989 40.3376 25.7309 37.6106 25.6499C34.8836 25.5689 32.5886 27.7559 32.5346 30.4829C32.4806 33.3449 34.5866 35.6129 37.4216 35.6399C40.1756 35.6399 42.3896 33.4799 42.4436 30.7529ZM26.6756 15.7949C26.2976 15.9029 25.8926 16.0109 25.5146 16.1189C24.2186 16.4699 23.4086 17.2799 23.0846 18.5759C23.0036 18.8729 23.1656 19.3859 23.3816 19.6019C24.3536 20.4929 25.4066 21.3029 26.4326 22.1669C27.4316 20.3849 29.1056 19.3049 31.3736 18.9539C30.9686 16.8209 29.8886 15.4169 27.9176 14.7419C26.0546 14.0939 23.9486 14.6609 22.6526 16.1729C21.9506 17.0099 21.4106 17.9009 21.6266 19.4129C22.4096 18.1439 22.8416 17.1179 23.5706 16.3349C24.3266 15.4979 25.4066 14.9849 26.6756 15.7949ZM25.4606 24.0029C24.8666 21.4379 22.4636 19.7639 19.7906 20.2499C17.5496 20.6549 15.7676 22.6259 16.0106 24.7319C16.7126 23.7059 17.1716 22.7339 17.9006 22.0049C18.6836 21.1679 19.7366 20.7359 21.0596 21.4109C19.1426 21.8159 17.6576 22.5989 17.3066 24.6779C18.0086 25.1369 18.6836 25.4879 19.2506 25.9739C19.8446 26.4869 20.3036 27.1079 20.5466 27.4049C22.1936 26.2439 23.7326 25.1909 25.4606 24.0029ZM27.1076 24.3809C27.2156 24.4619 27.3236 24.5159 27.4316 24.5969C27.6206 24.2729 27.8366 24.0029 27.9716 23.6519C28.5656 22.0859 29.6726 21.1409 31.3196 20.8709C31.6166 20.8169 31.9406 21.0059 32.2376 21.1139C31.7786 21.5459 31.2926 21.5459 30.9686 21.8159C30.1586 22.4639 29.4296 23.1929 28.7546 23.9759C28.5926 24.1379 28.7276 24.8129 28.9436 25.0019C29.9426 25.8929 31.0226 26.7299 31.7786 27.3239C32.5076 26.7299 33.2096 26.0279 34.0466 25.5149C34.8836 25.0019 35.8286 24.7049 36.7196 24.2999C36.3416 21.8429 34.2356 20.1149 31.7246 20.1959C29.2946 20.2769 27.3236 22.0589 27.1076 24.3809Z" fill="black"/>
<path d="M15.6051 26.8909C14.6061 27.4039 13.5531 27.7009 12.8781 28.3759C12.2031 29.0509 11.9331 30.1039 11.3391 31.3189C10.8801 29.8069 11.3661 28.8349 12.0951 27.9439C13.0941 26.7289 14.4711 26.3239 15.6051 26.8909Z" fill="black"/>
<path d="M22.5188 31.0487C21.8978 29.6177 22.4918 28.5917 23.3828 27.7007C24.2468 26.8367 25.2998 26.3777 26.6498 26.8907C24.4358 27.4577 22.8968 28.6187 22.5188 31.0487Z" fill="black"/>
<path d="M37.9887 27.0807C35.5317 27.3237 34.3166 28.7817 34.0466 31.3197C33.2906 30.0507 33.6146 28.7817 34.6406 27.7287C35.7207 26.6757 36.9627 26.3517 37.9887 27.0807Z" fill="black"/>
</svg>
